<?xml version="1.0" standalone="no"?>
<!DOCTYPE svg PUBLIC "-//W3C//DTD SVG 1.1//EN" "http://www.w3.org/Graphics/SVG/1.1/DTD/svg11.dtd" >
<svg xmlns="http://www.w3.org/2000/svg" xmlns:xlink="http://www.w3.org/1999/xlink" version="1.1">
<metadata>
Created by FontForge 20150318 at Tue Jun  2 03:50:19 2015
 By uniteet7
Fjalla is a medium contrast display sans serif. Fjalla has been carefully adjusted to the restrictions of the screen. Despite having display characteristics Fjalla can be used in a wide range of sizes.
</metadata>
<defs>
<font id="FjallaOne" horiz-adv-x="0" >
  <font-face 
    font-family="FjallaOne"
    font-weight="400"
    font-stretch="normal"
    units-per-em="2048"
    panose-1="2 0 5 6 4 0 0 2 0 4"
    ascent="1638"
    descent="-410"
    x-height="1377"
    cap-height="1708"
    bbox="-146 -458 2519 2066"
    underline-thickness="102"
    underline-position="-103"
    stemh="203"
    stemv="253"
    unicode-range="U+0009-FB02"
  />
<missing-glyph horiz-adv-x="1326" 
d="M105 0v1943h1116v-1943h-1116zM296 399h224l87 203l56 158l55 -158l87 -203h224l-265 545l265 537h-236l-85 -205l-47 -138l-45 138l-84 205h-236l264 -536z" />
    <glyph glyph-name="f_f" unicode="ff" horiz-adv-x="1239" 
d="M164 0v1185h-119v192h119v89c0 299 131 360 299 360c49 0 122 -11 168 -34v-178c-27 7 -60 11 -94 11c-66 0 -124 -39 -124 -159v-89h191v-192h-191v-1185h-249zM787 0v1197h-119v180h119v99c0 299 131 360 299 360c49 0 122 -11 168 -34v-178c-27 7 -60 11 -94 11
c-66 0 -124 -39 -124 -159v-99h191v-180h-191v-1197h-249z" />
    <glyph glyph-name="f_i" unicode="fi" horiz-adv-x="1144" 
d="M164 0v1185h-119v192h119v99c0 299 127 360 289 360c46 0 115 -11 158 -34v-178c-24 7 -54 11 -84 11c-61 0 -114 -39 -114 -159v-99h191v-192h-191v-1185h-249zM888 1574c-93 0 -151 58 -151 165c0 119 57 160 152 160c99 0 153 -49 153 -160c0 -104 -55 -165 -154 -165
zM757 0v1377h253v-1377h-253z" />
    <glyph glyph-name="f_l" unicode="fl" horiz-adv-x="1147" 
d="M164 0v1185h-119v192h119v99c0 299 127 360 289 360c46 0 115 -11 158 -34v-178c-24 7 -54 11 -84 11c-61 0 -114 -39 -114 -159v-99h191v-192h-191v-1185h-249zM760 0v1819h253v-1819h-253z" />
    <glyph glyph-name=".notdef" horiz-adv-x="1326" 
d="M105 0v1943h1116v-1943h-1116zM296 399h224l87 203l56 158l55 -158l87 -203h224l-265 545l265 537h-236l-85 -205l-47 -138l-45 138l-84 205h-236l264 -536z" />
    <glyph glyph-name=".null" 
 />
    <glyph glyph-name=".null" 
 />
    <glyph glyph-name="CR" unicode="&#xd;" 
 />
    <glyph glyph-name="space" unicode=" " horiz-adv-x="438" 
 />
    <glyph glyph-name="A" unicode="A" horiz-adv-x="967" 
d="M19 0l315 1708h298l316 -1708h-262l-47 306h-312l-45 -306h-263zM357 501h252l-120 851h-11z" />
    <glyph glyph-name="D" unicode="D" horiz-adv-x="1061" 
d="M146 0v1708h269c246 0 561 -13 561 -606v-496c0 -594 -315 -606 -561 -606h-269zM405 181h66c188 0 234 83 234 404v530c0 321 -46 404 -234 404h-66v-1338z" />
    <glyph glyph-name="H" unicode="H" horiz-adv-x="1119" 
d="M146 0v1708h259v-715h307v715h259v-1708h-259v789h-307v-789h-259z" />
    <glyph glyph-name="E" unicode="E" horiz-adv-x="830" 
d="M146 0v1708h633v-204h-374v-511h289v-204h-289v-585h384v-204h-643z" />
    <glyph glyph-name="S" unicode="S" horiz-adv-x="956" 
d="M80 346c0 73 9 131 26 202h201v-83c0 -184 42 -285 168 -285c98 0 152 56 152 159c0 106 -25 170 -120 291l-270 321c-95 122 -150 244 -150 385c0 227 144 387 393 387c302 0 391 -189 391 -362c0 -73 -14 -130 -28 -204h-200v81c0 180 -49 281 -166 281
c-97 0 -145 -59 -145 -149c0 -97 31 -148 81 -214l301 -364c110 -143 170 -267 170 -414c0 -242 -157 -394 -407 -394c-309 0 -397 180 -397 362z" />
    <glyph glyph-name="I" unicode="I" horiz-adv-x="551" 
d="M146 0v1708h259v-1708h-259z" />
    <glyph glyph-name="O" unicode="O" horiz-adv-x="1044" 
d="M524 -15c-166 0 -425 58 -425 571v605c0 515 265 562 425 562c154 0 421 -39 421 -562v-605c0 -507 -272 -571 -421 -571zM524 180c102 0 151 63 151 275v777c0 219 -49 287 -151 287c-105 0 -154 -68 -154 -287v-777c0 -212 49 -275 154 -275z" />
    <glyph glyph-name="N" unicode="N" horiz-adv-x="1127" 
d="M146 0v1708h210l414 -1143h6c-9 106 -27 255 -27 520v623h232v-1708h-212l-412 1113h-8c9 -121 27 -265 27 -611v-502h-230z" />
    <glyph glyph-name="o" unicode="o" horiz-adv-x="950" 
d="M477 -15c-176 0 -383 62 -383 606v216c0 535 213 586 384 586c165 0 378 -44 378 -586v-216c0 -535 -220 -606 -379 -606zM479 180c91 0 123 85 123 343v339c0 258 -32 346 -123 346c-95 0 -131 -88 -131 -346v-339c0 -258 36 -343 131 -343z" />
    <glyph glyph-name="d" unicode="d" horiz-adv-x="988" 
d="M394 -16c-93 0 -296 30 -296 497v437c0 463 221 474 302 474c100 0 175 -59 213 -115l1 1l-8 174v367h252v-1819h-197l-22 128c-44 -73 -117 -144 -245 -144zM480 180c66 0 104 48 126 99v828c-25 55 -67 101 -127 101c-74 0 -127 -43 -127 -249v-528
c0 -205 54 -251 128 -251z" />
    <glyph glyph-name="s" unicode="s" horiz-adv-x="829" 
d="M76 288c0 60 14 121 25 154h178c0 -200 37 -262 147 -262c76 0 109 50 109 106c0 59 -32 104 -86 170l-185 218c-96 121 -185 245 -185 405c0 214 158 314 338 314c199 0 327 -96 327 -286c0 -63 -14 -127 -25 -170h-175c-3 181 -21 271 -123 271
c-88 0 -115 -61 -115 -119c0 -64 33 -114 84 -178l202 -237c58 -73 168 -206 168 -367c0 -194 -126 -322 -351 -322c-185 0 -333 76 -333 303z" />
    <glyph glyph-name="e" unicode="e" horiz-adv-x="922" 
d="M462 -15c-237 0 -368 169 -368 579v260c0 526 251 569 397 569c182 0 347 -98 347 -430c0 -111 -13 -234 -33 -322h-457v-140c0 -240 32 -321 147 -321c62 0 120 45 120 190v43h211v-53c0 -261 -128 -375 -364 -375zM348 811h254c3 29 4 105 4 141
c0 182 -43 256 -127 256c-89 0 -131 -76 -131 -313v-84z" />
    <glyph glyph-name="period" unicode="." horiz-adv-x="501" 
d="M91 179c0 141 60 198 156 198c99 0 157 -65 157 -198c0 -122 -59 -193 -158 -193c-94 0 -155 67 -155 193z" />
    <glyph glyph-name="h" unicode="h" horiz-adv-x="1022" 
d="M130 0v1819h253v-324l-13 -236c75 103 175 134 268 134c160 0 252 -114 252 -338v-1055h-253v1046c0 121 -38 162 -110 162c-51 0 -106 -37 -144 -96v-1112h-253z" />
    <glyph glyph-name="exclam" unicode="!" horiz-adv-x="690" 
d="M243 555l-35 1258h273l-31 -1258h-207zM191 177c0 140 60 196 156 196c99 0 157 -64 157 -196c0 -121 -59 -191 -158 -191c-94 0 -155 66 -155 191z" />
    <glyph glyph-name="q" unicode="q" horiz-adv-x="988" 
d="M394 -15c-93 0 -296 29 -296 496v417c0 468 202 494 286 494c130 0 208 -83 253 -158l24 143h197v-1823h-252v367l7 168c-45 -57 -113 -104 -219 -104zM480 180c66 0 104 48 126 99v828c-25 55 -67 101 -127 101c-74 0 -127 -45 -127 -251v-526c0 -205 54 -251 128 -251z
" />
    <glyph glyph-name="b" unicode="b" horiz-adv-x="989" 
d="M130 0v1819h253v-367l-8 -182l1 -1c46 64 119 123 229 123c84 0 286 -26 286 -494v-417c0 -467 -203 -497 -296 -497c-129 0 -201 71 -246 144l-21 -128h-198zM383 279c22 -51 59 -99 126 -99c74 0 127 46 127 251v527c0 205 -52 250 -126 250c-62 0 -102 -43 -127 -93
v-836z" />
    <glyph glyph-name="p" unicode="p" horiz-adv-x="990" 
d="M375 91l8 -169v-367h-253v1822h198l23 -145c46 76 124 160 255 160c84 0 286 -26 286 -494v-417c0 -467 -203 -496 -296 -496c-107 0 -176 48 -221 106zM383 281c22 -52 59 -101 127 -101c74 0 127 46 127 251v527c0 205 -52 250 -126 250c-63 0 -103 -44 -128 -95v-832z
" />
    <glyph glyph-name="k" unicode="k" horiz-adv-x="942" 
d="M134 0v1819h253v-1047h8l276 605h243l-306 -630l335 -747h-258l-290 683h-8v-683h-253z" />
    <glyph glyph-name="m" unicode="m" horiz-adv-x="1520" 
d="M130 0v1377h196l22 -147v-1c79 126 184 164 286 164c107 0 184 -52 222 -156c79 119 181 156 281 156c159 0 251 -114 251 -338v-1055h-253v1046c0 121 -35 162 -117 162c-46 0 -96 -37 -134 -96c1 -12 1 -24 1 -36v-1076h-253v1046c0 121 -35 162 -117 162
c-45 0 -95 -36 -132 -94v-1114h-253z" />
    <glyph glyph-name="u" unicode="u" horiz-adv-x="1021" 
d="M132 322v1055h253v-1035c0 -121 38 -162 110 -162c50 0 101 29 139 81v1116h253v-1377h-193l-25 147h-1c-79 -125 -183 -163 -284 -163c-160 0 -252 113 -252 338z" />
    <glyph glyph-name="w" unicode="w" horiz-adv-x="1338" 
d="M262 0l-227 1377h241l99 -746l24 -279h8l30 279l132 746h213l136 -746l37 -279h8l17 279l87 746h236l-223 -1377h-233l-143 766l-32 211h-8l-29 -211l-130 -766h-243z" />
    <glyph glyph-name="v" unicode="v" horiz-adv-x="874" 
d="M326 0l-310 1377h252l133 -732l33 -293h8l38 293l132 732h244l-314 -1377h-216z" />
    <glyph glyph-name="z" unicode="z" horiz-adv-x="703" 
d="M22 0v126l386 1059h-353v192h624v-126l-387 -1059h389v-192h-659z" />
    <glyph glyph-name="x" unicode="x" horiz-adv-x="902" 
d="M25 0l286 699l-272 678h259l147 -451h2l156 451h242l-261 -654l293 -723h-259l-170 475h-8l-172 -475h-243z" />
    <glyph glyph-name="c" unicode="c" horiz-adv-x="871" 
d="M451 -15c-232 0 -357 189 -357 579v260c0 526 248 569 387 569c187 0 316 -97 316 -303c0 -63 -6 -106 -17 -149h-202v46c0 138 -31 221 -105 221c-82 0 -123 -69 -123 -306v-391c0 -240 30 -331 129 -331c51 0 99 45 99 190v43h218v-53c0 -261 -116 -375 -345 -375z" />
    <glyph glyph-name="f" unicode="f" horiz-adv-x="616" 
d="M164 0v1197h-119v180h119v99c0 299 131 360 299 360c49 0 122 -11 168 -34v-178c-27 7 -60 11 -94 11c-66 0 -124 -39 -124 -159v-99h191v-180h-191v-1197h-249z" />
    <glyph glyph-name="y" unicode="y" horiz-adv-x="898" 
d="M78 -265c153 -22 258 62 266 257l-326 1385h257l145 -762l42 -263h8l29 263l117 762h249l-290 -1428c-51 -264 -151 -394 -365 -394c-42 0 -87 8 -133 25z" />
    <glyph glyph-name="t" unicode="t" horiz-adv-x="675" 
d="M159 343v854h-107v180h129l51 357h180v-357h220v-180h-220v-876c0 -120 50 -141 109 -141c49 0 86 13 120 34v-140c-58 -71 -139 -90 -210 -90c-141 0 -272 60 -272 359z" />
    <glyph glyph-name="j" unicode="j" horiz-adv-x="521" 
d="M265 1574c-93 0 -151 58 -151 165c0 119 57 160 152 160c99 0 153 -49 153 -160c0 -104 -55 -165 -154 -165zM134 -116v1493h253v-1461c0 -300 -131 -360 -272 -360c-40 0 -82 6 -122 24v147c10 -1 21 -2 32 -2c59 0 109 39 109 159z" />
    <glyph glyph-name="T" unicode="T" horiz-adv-x="866" 
d="M304 0v1504h-275v204h808v-204h-274v-1504h-259z" />
    <glyph glyph-name="V" unicode="V" horiz-adv-x="955" 
d="M329 0l-310 1708h265l188 -1353h11l189 1353h264l-311 -1708h-296z" />
    <glyph glyph-name="Z" unicode="Z" horiz-adv-x="865" 
d="M39 0v137l506 1367h-430v204h721v-137l-507 -1367h477v-204h-767z" />
    <glyph glyph-name="X" unicode="X" horiz-adv-x="939" 
d="M33 0l312 860l-312 848h277l159 -546h10l159 546h268l-313 -849l313 -859h-267l-162 549h-17l-169 -549h-258z" />
    <glyph glyph-name="L" unicode="L" horiz-adv-x="776" 
d="M146 0v1708h259v-1504h353v-204h-612z" />
    <glyph glyph-name="J" unicode="J" horiz-adv-x="850" 
d="M351 -16c-257 0 -339 172 -339 378c0 72 9 167 28 257h207l-3 -208c0 -176 30 -231 104 -231c62 0 100 43 100 198l3 1330h259v-1294c0 -353 -175 -430 -359 -430z" />
    <glyph glyph-name="W" unicode="W" horiz-adv-x="1479" 
d="M283 0l-246 1708h248l115 -1032l13 -241h25l24 271l184 1002h207l176 -1002l20 -271h26l12 241l105 1032h249l-239 -1708h-263l-141 821l-44 357h-20l-43 -357l-148 -821h-260z" />
    <glyph glyph-name="Y" unicode="Y" horiz-adv-x="959" 
d="M349 0v569l-344 1139h261l209 -817h12l207 817h260l-346 -1139v-569h-259z" />
    <glyph glyph-name="Q" unicode="Q" horiz-adv-x="1064" 
d="M429 -5c-152 30 -320 148 -320 561v605c0 515 265 562 425 562c154 0 421 -39 421 -562v-605c0 -395 -165 -521 -308 -557v-15c0 -130 61 -153 179 -153c18 0 38 0 54 1v-140c-65 -29 -119 -38 -183 -38c-84 0 -268 19 -268 274v67zM534 180c102 0 151 63 151 275v777
c0 219 -49 287 -151 287c-105 0 -154 -68 -154 -287v-777c0 -212 49 -275 154 -275z" />
    <glyph glyph-name="M" unicode="M" horiz-adv-x="1442" 
d="M146 0v1708h338l164 -661c35 -146 52 -281 70 -397h8c18 116 35 251 70 397l169 661h331v-1708h-242v565c0 347 16 650 27 770h-19l-258 -1115h-164l-260 1115h-19c11 -120 27 -423 27 -770v-565h-242z" />
    <glyph glyph-name="K" unicode="K" horiz-adv-x="1005" 
d="M146 0v1708h259v-746h8l296 746h258l-330 -801l367 -907h-277l-314 813h-8v-813h-259z" />
    <glyph glyph-name="F" unicode="F" horiz-adv-x="826" 
d="M146 0v1708h653v-204h-394v-511h309v-204h-309v-789h-259z" />
    <glyph glyph-name="P" unicode="P" horiz-adv-x="982" 
d="M146 0v1708h259c197 0 527 -26 527 -529v-60c0 -548 -303 -599 -502 -599h-25v-520h-259zM405 710h13c188 0 248 104 248 361v154c0 203 -52 294 -248 294h-13v-809z" />
    <glyph glyph-name="R" unicode="R" horiz-adv-x="1048" 
d="M146 0v1708h281c193 0 518 -24 518 -488v-43c0 -259 -77 -422 -221 -494l274 -683h-274l-227 639h-97v-639h-254zM400 826h39c182 0 246 74 246 304v135c0 176 -57 254 -246 254h-39v-693z" />
    <glyph glyph-name="U" unicode="U" horiz-adv-x="1094" 
d="M140 525v1183h261v-1252c0 -212 42 -276 144 -276s151 64 151 276v1252h258v-1183c0 -502 -260 -540 -409 -540c-148 0 -405 38 -405 540z" />
    <glyph glyph-name="B" unicode="B" horiz-adv-x="1047" 
d="M146 0v1708h262c232 0 532 -29 532 -387v-83c0 -182 -113 -308 -228 -336v-8c169 -31 256 -167 256 -370v-87c0 -372 -259 -437 -550 -437h-272zM400 977h50c139 0 232 63 232 223v70c0 159 -61 249 -232 249h-50v-542zM400 180h74c138 0 231 72 231 232v133
c0 160 -61 249 -231 249h-74v-614z" />
    <glyph glyph-name="l" unicode="l" horiz-adv-x="521" 
d="M134 0v1819h253v-1819h-253z" />
    <glyph glyph-name="g" unicode="g" horiz-adv-x="993" 
d="M157 -94h179c0 -118 44 -163 135 -163c75 0 143 37 143 205v217c-45 -58 -114 -107 -220 -107c-93 0 -296 30 -296 498v362c0 448 202 474 302 474c134 0 201 -77 238 -150l23 136h197v-1322c0 -307 -115 -501 -384 -501c-182 0 -330 54 -330 271c0 19 4 48 13 80z
M480 254c66 0 104 49 126 100v753c-25 55 -67 101 -127 101c-74 0 -127 -43 -127 -249v-453c0 -205 54 -252 128 -252z" />
    <glyph glyph-name="dotlessi" unicode="&#x131;" horiz-adv-x="521" 
d="M134 0v1377h253v-1377h-253z" />
    <glyph glyph-name="bracketleft" unicode="[" horiz-adv-x="776" 
d="M139 -256v2219h505v-192h-283v-1837h283v-190h-505z" />
    <glyph glyph-name="dotlessj" unicode="&#x237;" horiz-adv-x="521" 
d="M134 -116v1493h253v-1461c0 -300 -131 -360 -272 -360c-40 0 -82 6 -122 24v147c10 -1 21 -2 32 -2c59 0 109 39 109 159z" />
    <glyph glyph-name="r" unicode="r" horiz-adv-x="788" 
d="M130 0v1377h185l22 -140c55 104 132 156 208 156c145 0 213 -90 213 -268c0 -46 -15 -131 -34 -187h-176v128c0 111 -30 142 -67 142c-40 0 -75 -28 -98 -74v-1134h-253z" />
    <glyph glyph-name="C" unicode="C" horiz-adv-x="936" 
d="M514 -15c-162 0 -415 58 -415 571v605c0 515 259 562 414 562c271 0 357 -164 357 -362c0 -73 -7 -130 -22 -204h-210v87c0 187 -43 281 -122 281c-95 0 -145 -68 -145 -287v-780c0 -212 38 -277 143 -277c67 0 127 61 127 198v167h237v-158c0 -274 -129 -402 -364 -403z
" />
    <glyph glyph-name="G" unicode="G" horiz-adv-x="1047" 
d="M491 -16c-121 0 -382 59 -382 572v605c0 515 275 562 438 562c277 0 375 -164 375 -362c0 -73 -10 -130 -24 -204h-207v81c0 187 -52 281 -151 281c-109 0 -160 -68 -160 -287v-774c0 -212 49 -277 158 -277c115 0 164 127 164 291v223h-133v170h385v-865h-172l-28 162
c-65 -127 -147 -178 -263 -178z" />
    <glyph glyph-name="Oslash" unicode="&#xd8;" horiz-adv-x="1039" 
d="M860 1878l-561 -2049h-125l561 2049h125zM524 -15c-166 0 -425 58 -425 571v605c0 515 265 562 425 562c154 0 421 -39 421 -562v-605c0 -507 -272 -571 -421 -571zM524 180c102 0 151 63 151 275v777c0 219 -49 287 -151 287c-105 0 -154 -68 -154 -287v-777
c0 -212 49 -275 154 -275z" />
    <glyph glyph-name="oslash" unicode="&#xf8;" horiz-adv-x="958" 
d="M857 1541l-640 -1712h-117l640 1712h117zM477 -15c-176 0 -383 62 -383 606v216c0 535 213 586 384 586c165 0 378 -44 378 -586v-216c0 -535 -220 -606 -379 -606zM479 180c91 0 123 85 123 343v339c0 258 -32 346 -123 346c-95 0 -131 -88 -131 -346v-339
c0 -258 36 -343 131 -343z" />
    <glyph glyph-name="kgreenlandic" unicode="&#x138;" horiz-adv-x="959" 
d="M134 0v1370h253v-643h8l276 643h243l-295 -656l324 -714h-256l-292 639h-8v-639h-253z" />
    <glyph glyph-name="thorn" unicode="&#xfe;" horiz-adv-x="989" 
d="M369 95l14 -154v-384h-253v2253h253v-365l-8 -181l1 -1c46 63 119 122 229 122c84 0 286 -26 286 -491v-415c0 -465 -203 -495 -296 -495c-103 0 -186 60 -226 111zM383 279c22 -51 59 -99 126 -99c74 0 127 46 127 250v518c0 204 -52 249 -126 249
c-62 0 -102 -38 -127 -82v-836z" />
    <glyph glyph-name="ae" unicode="&#xe6;" horiz-adv-x="1349" 
d="M42 314c0 225 109 344 319 447c50 25 114 54 163 72v177c0 102 -1 198 -108 198c-72 0 -140 -49 -140 -206v-66h-193c-12 52 -18 93 -18 136c0 204 149 313 359 313c127 0 206 -51 256 -112h8c71 85 169 113 245 113c166 0 326 -97 326 -428c0 -110 -14 -233 -34 -320
h-448v-139c0 -239 31 -327 146 -327c62 0 123 45 123 189v50h205v-53c0 -259 -117 -374 -336 -374c-126 0 -222 59 -279 167h-8c-68 -105 -176 -167 -289 -167c-214 0 -297 153 -297 330zM777 807h247c3 29 4 110 4 146c0 181 -37 254 -121 255c-89 0 -130 -76 -130 -311
v-90zM287 353c0 -104 39 -177 130 -177c42 0 79 25 107 57v432c-26 -11 -54 -24 -92 -48c-71 -44 -145 -129 -145 -264z" />
    <glyph glyph-name="oe" unicode="&#x153;" horiz-adv-x="1428" 
d="M479 -15c-176 0 -381 62 -381 603v215c0 532 211 583 382 583c81 0 181 -20 253 -113h8c84 95 185 113 261 113c182 0 336 -97 336 -428c0 -110 -13 -233 -33 -320h-449v-139c0 -239 32 -327 147 -327c62 0 123 45 123 189v50h205v-53c0 -259 -109 -373 -351 -373
c-100 0 -189 46 -247 113h-8c-71 -88 -167 -113 -246 -113zM856 807h248c3 29 4 110 4 146c0 181 -37 254 -121 255c-89 0 -131 -76 -131 -311v-90zM481 172c91 0 121 85 121 341v351c0 256 -30 344 -121 344c-95 0 -129 -88 -129 -344v-351c0 -256 34 -341 129 -341z" />
    <glyph glyph-name="hbar" unicode="&#x127;" horiz-adv-x="1018" 
d="M130 0v1505h-124v171h124v134h253v-134h221v-171h-221v-17l-13 -229c75 102 175 134 268 134c160 0 252 -115 252 -338v-1055h-253v1047c0 120 -38 161 -110 161c-51 0 -106 -41 -144 -93v-1115h-253z" />
    <glyph glyph-name="ldot" unicode="&#x140;" horiz-adv-x="767" 
d="M134 0v1810h253v-1810h-253zM619 712c-82 0 -139 65 -139 178c0 126 56 172 140 172c86 0 132 -54 132 -172c0 -110 -46 -178 -133 -178z" />
    <glyph glyph-name="lslash" unicode="&#x142;" horiz-adv-x="607" 
d="M175 0v631l-90 -92l-118 121l208 213v937h252v-679l95 97l118 -122l-213 -218v-888h-252z" />
    <glyph glyph-name="Thorn" unicode="&#xde;" horiz-adv-x="1002" 
d="M146 0v1708h257v-255h11c193 0 518 -25 518 -528v-61c0 -547 -303 -600 -502 -600h-25v-264h-259zM405 455h13c188 0 248 104 248 362v153c0 203 -52 295 -248 295h-13v-810z" />
    <glyph glyph-name="OE" unicode="&#x152;" horiz-adv-x="1370" 
d="M103 631v446c0 602 344 631 541 631h654v-205h-394v-508h307v-224h-307v-566h394v-205h-654c-197 0 -541 28 -541 631zM631 187h16v1334h-16c-197 0 -260 -127 -260 -398v-541c0 -279 72 -395 260 -395z" />
    <glyph glyph-name="AE" unicode="&#xc6;" horiz-adv-x="1266" 
d="M11 0l432 1708h797v-205h-394v-508h307v-224h-307v-566h394v-205h-650v306h-255l-63 -306h-261zM374 492h216v864h-37z" />
    <glyph glyph-name="periodcentered" unicode="&#xb7;" horiz-adv-x="561" 
d="M121 793c0 141 60 198 156 198c99 0 157 -65 157 -198c0 -122 -59 -193 -158 -193c-94 0 -155 67 -155 193z" />
    <glyph glyph-name="plus" unicode="+" horiz-adv-x="835" 
d="M317 368v323h-272v196h272v313h199v-313h274v-196h-274v-323h-199z" />
    <glyph glyph-name="divide" unicode="&#xf7;" horiz-adv-x="835" 
d="M418 1043c-80 0 -135 59 -135 162c0 116 54 158 136 158c83 0 128 -51 128 -158c0 -100 -45 -162 -129 -162zM45 691v196h745v-196h-745zM417 215c-80 0 -135 59 -135 162c0 116 54 158 136 158c83 0 128 -51 128 -158c0 -100 -45 -162 -129 -162z" />
    <glyph glyph-name="plusminus" unicode="&#xb1;" horiz-adv-x="916" 
d="M357 537v323h-271v195h271v314h199v-314h274v-195h-274v-323h-199zM86 169v195h744v-195h-744z" />
    <glyph glyph-name="hyphen" unicode="-" horiz-adv-x="997" 
d="M126 685v203h745v-203h-745z" />
    <glyph glyph-name="endash" unicode="&#x2013;" horiz-adv-x="1381" 
d="M126 685v203h1128v-203h-1128z" />
    <glyph glyph-name="emdash" unicode="&#x2014;" horiz-adv-x="1647" 
d="M126 685v203h1395v-203h-1395z" />
    <glyph glyph-name="colon" unicode=":" horiz-adv-x="501" 
d="M91 1151c0 141 60 198 156 198c99 0 157 -65 157 -198c0 -122 -59 -193 -158 -193c-94 0 -155 67 -155 193zM91 179c0 141 60 198 156 198c99 0 157 -65 157 -198c0 -122 -59 -193 -158 -193c-94 0 -155 67 -155 193z" />
    <glyph glyph-name="semicolon" unicode=";" horiz-adv-x="501" 
d="M91 1151c0 141 60 198 156 198c99 0 157 -65 157 -198c0 -122 -59 -193 -158 -193c-94 0 -155 67 -155 193zM55 -327l100 677h257l-146 -677h-211z" />
    <glyph glyph-name="comma" unicode="," horiz-adv-x="512" 
d="M55 -327l100 677h257l-146 -677h-211z" />
    <glyph glyph-name="bullet" unicode="&#x2022;" horiz-adv-x="711" 
d="M350 532c-146 0 -216 114 -216 232c0 127 67 244 216 244c152 0 227 -115 227 -244c0 -112 -75 -232 -227 -232z" />
    <glyph glyph-name="exclamdown" unicode="&#xa1;" horiz-adv-x="690" 
d="M208 -424l35 1258h207l31 -1258h-273zM191 1212c0 125 61 191 155 191c99 0 158 -70 158 -191c0 -132 -58 -196 -157 -196c-96 0 -156 56 -156 196z" />
    <glyph glyph-name="one" unicode="1" horiz-adv-x="830" 
d="M152 0v195h198v1165l-212 -187l-112 131l388 404h193l-1 -2l1 1v-1512h197v-195h-652z" />
    <glyph glyph-name="zero" unicode="0" horiz-adv-x="1047" 
d="M105 498v722c0 450 265 503 421 503c150 0 416 -45 416 -503v-722c0 -448 -270 -513 -416 -513c-162 0 -421 64 -421 513zM370 389c0 -141 51 -202 156 -202c102 0 153 61 153 202v925c0 148 -51 214 -153 214c-105 0 -156 -66 -156 -214v-925z" />
    <glyph glyph-name="eth" unicode="&#xf0;" horiz-adv-x="970" 
d="M489 -15c-176 0 -395 54 -395 612v198c0 548 247 582 353 582c35 0 105 -4 116 -10c-27 104 -80 195 -137 265l-103 -123l-127 106l103 128c-54 31 -114 49 -179 50v166c108 0 206 -28 291 -77l111 138l132 -116l-107 -127c214 -214 326 -590 326 -988v-192
c0 -550 -225 -612 -384 -612zM491 180c99 0 116 88 116 340v638c-18 32 -47 50 -116 50c-84 0 -123 -50 -123 -327v-361c0 -252 20 -340 123 -340z" />
    <glyph glyph-name="paragraph" unicode="&#xb6;" horiz-adv-x="1101" 
d="M683 0v1708h258v-1708h-258zM481 520c-135 0 -382 26 -382 599v60c0 503 247 529 382 529h31v-1188h-31z" />
    <glyph glyph-name="section" unicode="&#xa7;" horiz-adv-x="1062" 
d="M166 -45c0 74 9 131 27 205h180v-109c0 -162 66 -235 146 -235c90 0 137 71 137 159c0 82 -45 141 -163 262l-157 160c-129 132 -200 229 -200 394c0 146 71 261 185 329c-107 121 -155 225 -155 362c0 202 141 345 377 345c254 0 354 -170 354 -324
c0 -74 -9 -132 -27 -206h-180v109c0 162 -67 236 -147 236c-90 0 -137 -71 -137 -160c0 -81 45 -141 164 -261l156 -161c129 -131 200 -229 200 -394c0 -146 -72 -262 -185 -330c107 -121 156 -224 156 -361c0 -201 -142 -344 -378 -344c-253 0 -353 169 -353 324zM494 584
l125 -123c48 40 82 101 82 174c0 80 -37 146 -132 238l-127 123c-47 -40 -80 -102 -80 -173c0 -80 37 -146 132 -239z" />
    <glyph glyph-name="equal" unicode="=" horiz-adv-x="916" 
d="M86 895v195h744v-195h-744zM86 488v195h744v-195h-744z" />
    <glyph glyph-name="bar" unicode="|" horiz-adv-x="714" 
d="M247 -326v2210h220v-2210h-220z" />
    <glyph glyph-name="brokenbar" unicode="&#xa6;" horiz-adv-x="714" 
d="M247 940v944h220v-944h-220zM247 -326v1009h220v-1009h-220z" />
    <glyph glyph-name="slash" unicode="/" horiz-adv-x="552" 
d="M10 -326l313 2210h219l-313 -2210h-219z" />
    <glyph glyph-name="backslash" unicode="\" horiz-adv-x="552" 
d="M323 -326l-313 2210h219l313 -2210h-219z" />
    <glyph glyph-name="numbersign" unicode="#" horiz-adv-x="1108" 
d="M209 0l28 385h-141v182h154l19 242h-133v182h146l28 378h179l-28 -378h238l28 378h179l-28 -378h134v-182h-147l-19 -242h126v-182h-139l-28 -385h-179l28 385h-238l-28 -385h-179zM429 567h239l18 242h-239z" />
    <glyph glyph-name="cent" unicode="&#xa2;" horiz-adv-x="899" 
d="M395 -8c-184 34 -282 208 -282 572v260c0 408 149 525 281 557v242h186v-237c142 -25 234 -121 234 -296c0 -63 -6 -106 -17 -149h-192v46c0 138 -39 221 -113 221c-82 0 -125 -76 -125 -313v-394c0 -240 32 -321 131 -321c51 0 107 45 107 190v53h205v-63
c0 -215 -75 -330 -229 -364v-254h-186v250z" />
    <glyph glyph-name="dollar" unicode="$" horiz-adv-x="1006" 
d="M97 346c0 73 9 131 26 202h201v-82c0 -184 56 -285 171 -285c98 0 147 51 147 147c0 76 -25 159 -120 280l-263 339c-95 122 -151 238 -151 389c0 201 117 349 316 380v228h186v-230c219 -38 290 -202 290 -353c0 -73 -13 -130 -27 -204h-200v82c0 180 -60 281 -167 281
c-97 0 -148 -59 -148 -149c0 -77 35 -137 85 -203l295 -382c110 -143 170 -261 170 -418c0 -198 -114 -334 -297 -372v-251h-186v243c-252 25 -328 191 -328 358z" />
    <glyph glyph-name="bracketright" unicode="]" horiz-adv-x="776" 
d="M131 -66h284v1837h-284v192h505v-2219h-505v190z" />
    <glyph glyph-name="parenright" unicode=")" horiz-adv-x="776" 
d="M121 -83c185 0 294 247 294 795v291c0 517 -101 787 -294 787v173c193 0 523 -44 523 -1006v-197c0 -979 -330 -1017 -523 -1017v174z" />
    <glyph glyph-name="parenleft" unicode="(" horiz-adv-x="776" 
d="M654 -83v-174c-192 0 -523 38 -523 1017v197c0 962 331 1006 523 1006v-173c-192 0 -293 -270 -293 -787v-291c0 -548 109 -795 293 -795z" />
    <glyph glyph-name="yen" unicode="&#xa5;" horiz-adv-x="1006" 
d="M137 217v179h236v151h-236v180h236l-335 981h261l198 -716h12l198 716h261l-337 -981h235v-180h-235v-151h235v-179h-235v-217h-258v217h-236z" />
    <glyph glyph-name="Euro" unicode="&#x20ac;" horiz-adv-x="1038" 
d="M4 546v180h154v151h-154v179h154v105c0 515 270 562 434 562c269 0 362 -149 362 -337c0 -95 -14 -132 -27 -192h-200v65c0 186 -50 261 -142 261c-101 0 -162 -68 -162 -287v-177h322l-29 -179h-293v-151h267l-32 -180h-235v-90c0 -212 61 -275 180 -275
c91 0 156 57 156 185v73h218v-61c0 -267 -134 -392 -374 -393c-174 0 -442 57 -445 561h-154z" />
    <glyph glyph-name="asciicircum" unicode="^" horiz-adv-x="959" 
d="M35 277l323 1448h233l333 -1448h-219l-162 790l-51 335h-25l-54 -335l-159 -790h-219z" />
    <glyph glyph-name="quotesingle" unicode="'" horiz-adv-x="661" 
d="M231 1180l-25 696h249l-21 -696h-203z" />
    <glyph glyph-name="quotedbl" unicode="&#x22;" horiz-adv-x="1123" 
d="M231 1180l-25 696h249l-21 -696h-203zM693 1180l-25 696h249l-21 -696h-203z" />
    <glyph glyph-name="less" unicode="&#x3c;" horiz-adv-x="775" 
d="M45 715v147l644 400v-235l-416 -235v-8l416 -236v-234z" />
    <glyph glyph-name="greater" unicode="&#x3e;" horiz-adv-x="775" 
d="M679 862v-147l-644 -401v234l416 236v8l-416 235v235z" />
    <glyph glyph-name="underscore" unicode="_" horiz-adv-x="1381" 
d="M-5 -172h1391v-163h-1391v163z" />
    <glyph glyph-name="minus" unicode="&#x2212;" horiz-adv-x="997" 
d="M126 691v196h745v-196h-745z" />
    <glyph glyph-name="Ldot" unicode="&#x13f;" horiz-adv-x="790" 
d="M674 601c-96 0 -143 81 -143 164c0 90 45 174 143 174c101 0 150 -82 150 -174c0 -80 -49 -164 -150 -164zM146 0v1708h259v-1504h353v-204h-612z" />
    <glyph glyph-name="Lslash" unicode="&#x141;" horiz-adv-x="773" 
d="M146 0v560l-104 -81l-118 155l222 178v913h256v-707l197 160l130 -168l-327 -253v-550h354v-207h-610z" />
    <glyph glyph-name="acute" unicode="&#xb4;" horiz-adv-x="687" 
d="M239 1462l-125 105l290 416l169 -137z" />
    <glyph glyph-name="acute.cap" horiz-adv-x="678" 
d="M219 1733l-105 117l321 216l129 -167z" />
    <glyph glyph-name="grave" unicode="`" horiz-adv-x="687" 
d="M448 1462l-334 384l169 137l290 -416z" />
    <glyph glyph-name="grave.cap" horiz-adv-x="678" 
d="M459 1733l-345 166l129 167l321 -216z" />
    <glyph glyph-name="dieresis" unicode="&#xa8;" horiz-adv-x="948" 
d="M688 1566c-104 0 -136 55 -136 162c0 114 30 171 136 171c109 0 146 -54 146 -171c0 -103 -37 -162 -146 -162zM251 1566c-104 0 -137 55 -137 162c0 114 31 171 137 171c109 0 145 -54 145 -171c0 -103 -36 -162 -145 -162z" />
    <glyph glyph-name="dieresis.cap" horiz-adv-x="948" 
d="M688 1751c-104 0 -136 58 -136 158c0 105 30 157 136 157c109 0 146 -49 146 -157c0 -96 -37 -158 -146 -158zM251 1751c-104 0 -137 58 -137 158c0 105 31 157 137 157c109 0 145 -49 145 -157c0 -96 -36 -158 -145 -158z" />
    <glyph glyph-name="Adieresis" unicode="&#xc4;" horiz-adv-x="967" 
d="M19 0l315 1708h298l316 -1708h-262l-47 306h-312l-45 -306h-263zM357 501h252l-120 851h-11zM699 1751c-104 0 -136 58 -136 158c0 105 30 157 136 157c109 0 146 -49 146 -157c0 -96 -37 -158 -146 -158zM262 1751c-104 0 -137 58 -137 158c0 105 31 157 137 157
c109 0 145 -49 145 -157c0 -96 -36 -158 -145 -158z" />
    <glyph glyph-name="adieresis" unicode="&#xe4;" horiz-adv-x="924" 
d="M334 -15c-170 0 -266 143 -266 331c0 226 112 345 322 449c50 25 121 54 170 72v182c0 107 -8 189 -115 189c-72 0 -140 -49 -140 -207v-60h-193c-12 52 -18 93 -18 136c0 205 149 316 359 316c274 0 353 -118 353 -362v-1031h-188l-18 118c-54 -78 -150 -133 -266 -133z
M446 180c42 0 86 25 114 57v431c-26 -11 -61 -24 -99 -48c-71 -44 -145 -130 -145 -265c0 -105 39 -175 130 -175zM637 1566c-104 0 -136 55 -136 162c0 114 30 171 136 171c109 0 146 -54 146 -171c0 -103 -37 -162 -146 -162zM200 1566c-104 0 -137 55 -137 162
c0 114 31 171 137 171c109 0 145 -54 145 -171c0 -103 -36 -162 -145 -162z" />
    <glyph glyph-name="Aacute" unicode="&#xc1;" horiz-adv-x="967" 
d="M19 0l315 1708h298l316 -1708h-262l-47 306h-312l-45 -306h-263zM357 501h252l-120 851h-11zM484 1733l-105 117l321 216l129 -167z" />
    <glyph glyph-name="aacute" unicode="&#xe1;" horiz-adv-x="924" 
d="M334 -15c-170 0 -266 143 -266 331c0 226 112 345 322 449c50 25 121 54 170 72v182c0 107 -8 189 -115 189c-72 0 -140 -49 -140 -207v-60h-193c-12 52 -18 93 -18 136c0 205 149 316 359 316c274 0 353 -118 353 -362v-1031h-188l-18 118c-54 -78 -150 -133 -266 -133z
M446 180c42 0 86 25 114 57v431c-26 -11 -61 -24 -99 -48c-71 -44 -145 -130 -145 -265c0 -105 39 -175 130 -175zM422 1462l-125 105l290 416l169 -137z" />
    <glyph glyph-name="Agrave" unicode="&#xc0;" horiz-adv-x="967" 
d="M19 0l315 1708h298l316 -1708h-262l-47 306h-312l-45 -306h-263zM357 501h252l-120 851h-11zM485 1733l-345 166l129 167l321 -216z" />
    <glyph glyph-name="Oacute" unicode="&#xd3;" horiz-adv-x="1070" 
d="M537 -15c-166 0 -425 58 -425 571v605c0 515 265 562 425 562c154 0 421 -39 421 -562v-605c0 -507 -272 -571 -421 -571zM537 180c102 0 151 63 151 275v777c0 219 -49 287 -151 287c-105 0 -154 -68 -154 -287v-777c0 -212 49 -275 154 -275zM532 1733l-105 117
l321 216l129 -167z" />
    <glyph glyph-name="Ograve" unicode="&#xd2;" horiz-adv-x="1070" 
d="M537 -15c-166 0 -425 58 -425 571v605c0 515 265 562 425 562c154 0 421 -39 421 -562v-605c0 -507 -272 -571 -421 -571zM537 180c102 0 151 63 151 275v777c0 219 -49 287 -151 287c-105 0 -154 -68 -154 -287v-777c0 -212 49 -275 154 -275zM533 1733l-345 166
l129 167l321 -216z" />
    <glyph glyph-name="Odieresis" unicode="&#xd6;" horiz-adv-x="1070" 
d="M537 -15c-166 0 -425 58 -425 571v605c0 515 265 562 425 562c154 0 421 -39 421 -562v-605c0 -507 -272 -571 -421 -571zM537 180c102 0 151 63 151 275v777c0 219 -49 287 -151 287c-105 0 -154 -68 -154 -287v-777c0 -212 49 -275 154 -275zM747 1751
c-104 0 -136 58 -136 158c0 105 30 157 136 157c109 0 146 -49 146 -157c0 -96 -37 -158 -146 -158zM310 1751c-104 0 -137 58 -137 158c0 105 31 157 137 157c109 0 145 -49 145 -157c0 -96 -36 -158 -145 -158z" />
    <glyph glyph-name="agrave" unicode="&#xe0;" horiz-adv-x="924" 
d="M334 -15c-170 0 -266 143 -266 331c0 226 112 345 322 449c50 25 121 54 170 72v182c0 107 -8 189 -115 189c-72 0 -140 -49 -140 -207v-60h-193c-12 52 -18 93 -18 136c0 205 149 316 359 316c274 0 353 -118 353 -362v-1031h-188l-18 118c-54 -78 -150 -133 -266 -133z
M446 180c42 0 86 25 114 57v431c-26 -11 -61 -24 -99 -48c-71 -44 -145 -130 -145 -265c0 -105 39 -175 130 -175zM422 1462l-334 384l169 137l290 -416z" />
    <glyph glyph-name="mu" unicode="&#xb5;" horiz-adv-x="1036" 
d="M122 -328l-1 1705h262v-1033c0 -122 38 -163 117 -163c46 0 90 13 132 63v1133h266v-1377h-206l-17 96c-40 -61 -117 -112 -185 -112c-45 0 -84 9 -126 59l-8 1l7 -372h-241z" />
    <glyph glyph-name="logicalnot" unicode="&#xac;" horiz-adv-x="991" 
d="M45 692v195h860v-519h-198v324h-662z" />
    <glyph glyph-name="nbspace" unicode="&#xa0;" horiz-adv-x="438" 
 />
    <glyph glyph-name="i" unicode="i" horiz-adv-x="521" 
d="M265 1574c-93 0 -151 58 -151 165c0 119 57 160 152 160c99 0 153 -49 153 -160c0 -104 -55 -165 -154 -165zM134 0v1377h253v-1377h-253z" />
    <glyph glyph-name="Ydieresis" unicode="&#x178;" horiz-adv-x="959" 
d="M349 0v569l-344 1139h261l209 -817h12l207 817h260l-346 -1139v-569h-259zM695 1751c-104 0 -136 58 -136 158c0 105 30 157 136 157c109 0 146 -49 146 -157c0 -96 -37 -158 -146 -158zM258 1751c-104 0 -137 58 -137 158c0 105 31 157 137 157c109 0 145 -49 145 -157
c0 -96 -36 -158 -145 -158z" />
    <glyph glyph-name="Udieresis" unicode="&#xdc;" horiz-adv-x="1105" 
d="M144 525v1183h261v-1252c0 -212 42 -276 144 -276s151 64 151 276v1252h258v-1183c0 -502 -260 -540 -409 -540c-148 0 -405 38 -405 540zM775 1751c-104 0 -136 58 -136 158c0 105 30 157 136 157c109 0 146 -49 146 -157c0 -96 -37 -158 -146 -158zM338 1751
c-104 0 -137 58 -137 158c0 105 31 157 137 157c109 0 145 -49 145 -157c0 -96 -36 -158 -145 -158z" />
    <glyph glyph-name="Idieresis" unicode="&#xcf;" horiz-adv-x="551" 
d="M146 0v1708h259v-1708h-259zM489 1751c-104 0 -136 58 -136 158c0 105 30 157 136 157c109 0 146 -49 146 -157c0 -96 -37 -158 -146 -158zM52 1751c-104 0 -137 58 -137 158c0 105 31 157 137 157c109 0 145 -49 145 -157c0 -96 -36 -158 -145 -158z" />
    <glyph glyph-name="Edieresis" unicode="&#xcb;" horiz-adv-x="830" 
d="M146 0v1708h633v-204h-374v-511h289v-204h-289v-585h384v-204h-643zM694 1751c-104 0 -136 58 -136 158c0 105 30 157 136 157c109 0 146 -49 146 -157c0 -96 -37 -158 -146 -158zM257 1751c-104 0 -137 58 -137 158c0 105 31 157 137 157c109 0 145 -49 145 -157
c0 -96 -36 -158 -145 -158z" />
    <glyph glyph-name="Eacute" unicode="&#xc9;" horiz-adv-x="830" 
d="M146 0v1708h633v-204h-374v-511h289v-204h-289v-585h384v-204h-643zM479 1733l-105 117l321 216l129 -167z" />
    <glyph glyph-name="Egrave" unicode="&#xc8;" horiz-adv-x="830" 
d="M146 0v1708h633v-204h-374v-511h289v-204h-289v-585h384v-204h-643zM480 1733l-345 166l129 167l321 -216z" />
    <glyph glyph-name="Iacute" unicode="&#xcd;" horiz-adv-x="551" 
d="M146 0v1708h259v-1708h-259zM274 1733l-105 117l321 216l129 -167z" />
    <glyph glyph-name="Igrave" unicode="&#xcc;" horiz-adv-x="551" 
d="M146 0v1708h259v-1708h-259zM275 1733l-345 166l129 167l321 -216z" />
    <glyph glyph-name="IJ" unicode="&#x132;" horiz-adv-x="1372" 
d="M146 0v1708h259v-1708h-259zM895 -16c-257 0 -339 172 -339 378c0 72 9 167 28 257h207l-3 -208c0 -176 30 -231 104 -231c62 0 100 43 100 198l3 1330h259v-1294c0 -353 -175 -430 -359 -430z" />
    <glyph glyph-name="Nacute" unicode="&#x143;" horiz-adv-x="1123" 
d="M144 0v1708h210l414 -1143h6c-9 106 -27 255 -27 520v623h232v-1708h-212l-412 1113h-8c9 -121 27 -265 27 -611v-502h-230zM562 1733l-105 117l321 216l129 -167z" />
    <glyph glyph-name="Racute" unicode="&#x154;" horiz-adv-x="1070" 
d="M146 0v1708h281c193 0 518 -24 518 -488v-43c0 -259 -77 -422 -221 -494l274 -683h-274l-227 639h-97v-639h-254zM400 826h39c182 0 246 74 246 304v135c0 176 -57 254 -246 254h-39v-693zM573 1733l-105 117l321 216l129 -167z" />
    <glyph glyph-name="Uacute" unicode="&#xda;" horiz-adv-x="1105" 
d="M144 525v1183h261v-1252c0 -212 42 -276 144 -276s151 64 151 276v1252h258v-1183c0 -502 -260 -540 -409 -540c-148 0 -405 38 -405 540zM560 1733l-105 117l321 216l129 -167z" />
    <glyph glyph-name="Ugrave" unicode="&#xd9;" horiz-adv-x="1105" 
d="M144 525v1183h261v-1252c0 -212 42 -276 144 -276s151 64 151 276v1252h258v-1183c0 -502 -260 -540 -409 -540c-148 0 -405 38 -405 540zM561 1733l-345 166l129 167l321 -216z" />
    <glyph glyph-name="odieresis" unicode="&#xf6;" horiz-adv-x="958" 
d="M481 -15c-176 0 -383 62 -383 606v216c0 535 213 586 384 586c165 0 378 -44 378 -586v-216c0 -535 -220 -606 -379 -606zM483 180c91 0 123 85 123 343v339c0 258 -32 346 -123 346c-95 0 -131 -88 -131 -346v-339c0 -258 36 -343 131 -343zM693 1566
c-104 0 -136 55 -136 162c0 114 30 171 136 171c109 0 146 -54 146 -171c0 -103 -37 -162 -146 -162zM256 1566c-104 0 -137 55 -137 162c0 114 31 171 137 171c109 0 145 -54 145 -171c0 -103 -36 -162 -145 -162z" />
    <glyph glyph-name="ograve" unicode="&#xf2;" horiz-adv-x="958" 
d="M481 -15c-176 0 -383 62 -383 606v216c0 535 213 586 384 586c165 0 378 -44 378 -586v-216c0 -535 -220 -606 -379 -606zM483 180c91 0 123 85 123 343v339c0 258 -32 346 -123 346c-95 0 -131 -88 -131 -346v-339c0 -258 36 -343 131 -343zM478 1462l-334 384l169 137
l290 -416z" />
    <glyph glyph-name="oacute" unicode="&#xf3;" horiz-adv-x="958" 
d="M481 -15c-176 0 -383 62 -383 606v216c0 535 213 586 384 586c165 0 378 -44 378 -586v-216c0 -535 -220 -606 -379 -606zM483 180c91 0 123 85 123 343v339c0 258 -32 346 -123 346c-95 0 -131 -88 -131 -346v-339c0 -258 36 -343 131 -343zM478 1462l-125 105l290 416
l169 -137z" />
    <glyph glyph-name="eacute" unicode="&#xe9;" horiz-adv-x="924" 
d="M468 -15c-237 0 -368 169 -368 579v260c0 526 251 569 397 569c182 0 347 -98 347 -430c0 -111 -13 -234 -33 -322h-457v-140c0 -240 32 -321 147 -321c62 0 120 45 120 190v43h211v-53c0 -261 -128 -375 -364 -375zM354 811h254c3 29 4 105 4 141
c0 182 -43 256 -127 256c-89 0 -131 -76 -131 -313v-84zM486 1462l-125 105l290 416l169 -137z" />
    <glyph glyph-name="egrave" unicode="&#xe8;" horiz-adv-x="924" 
d="M468 -15c-237 0 -368 169 -368 579v260c0 526 251 569 397 569c182 0 347 -98 347 -430c0 -111 -13 -234 -33 -322h-457v-140c0 -240 32 -321 147 -321c62 0 120 45 120 190v43h211v-53c0 -261 -128 -375 -364 -375zM354 811h254c3 29 4 105 4 141
c0 182 -43 256 -127 256c-89 0 -131 -76 -131 -313v-84zM486 1462l-334 384l169 137l290 -416z" />
    <glyph glyph-name="edieresis" unicode="&#xeb;" horiz-adv-x="924" 
d="M468 -15c-237 0 -368 169 -368 579v260c0 526 251 569 397 569c182 0 347 -98 347 -430c0 -111 -13 -234 -33 -322h-457v-140c0 -240 32 -321 147 -321c62 0 120 45 120 190v43h211v-53c0 -261 -128 -375 -364 -375zM354 811h254c3 29 4 105 4 141
c0 182 -43 256 -127 256c-89 0 -131 -76 -131 -313v-84zM701 1566c-104 0 -136 55 -136 162c0 114 30 171 136 171c109 0 146 -54 146 -171c0 -103 -37 -162 -146 -162zM264 1566c-104 0 -137 55 -137 162c0 114 31 171 137 171c109 0 145 -54 145 -171
c0 -103 -36 -162 -145 -162z" />
    <glyph glyph-name="iacute" unicode="&#xed;" horiz-adv-x="521" 
d="M134 0v1377h253v-1377h-253zM261 1462l-125 105l290 416l169 -137z" />
    <glyph glyph-name="igrave" unicode="&#xec;" horiz-adv-x="521" 
d="M134 0v1377h253v-1377h-253zM261 1462l-334 384l169 137l290 -416z" />
    <glyph glyph-name="idieresis" unicode="&#xef;" horiz-adv-x="521" 
d="M134 0v1377h253v-1377h-253zM476 1566c-104 0 -136 55 -136 162c0 114 30 171 136 171c109 0 146 -54 146 -171c0 -103 -37 -162 -146 -162zM39 1566c-104 0 -137 55 -137 162c0 114 31 171 137 171c109 0 145 -54 145 -171c0 -103 -36 -162 -145 -162z" />
    <glyph glyph-name="ij" unicode="&#x133;" horiz-adv-x="1032" 
d="M265 1574c-93 0 -151 58 -151 165c0 119 57 160 152 160c99 0 153 -49 153 -160c0 -104 -55 -165 -154 -165zM134 0v1377h253v-1377h-253zM776 1574c-93 0 -151 58 -151 165c0 119 57 160 152 160c99 0 153 -49 153 -160c0 -104 -55 -165 -154 -165zM645 -116v1493h253
v-1461c0 -300 -131 -360 -272 -360c-40 0 -82 6 -122 24v147c10 -1 21 -2 32 -2c59 0 109 39 109 159z" />
    <glyph glyph-name="nacute" unicode="&#x144;" horiz-adv-x="1021" 
d="M131 0v1377h195l23 -147v-1c79 126 187 164 288 164c160 0 252 -114 252 -338v-1055h-253v1046c0 121 -38 162 -110 162c-51 0 -104 -36 -142 -94v-1114h-253zM536 1462l-125 105l290 416l169 -137z" />
    <glyph glyph-name="uacute" unicode="&#xfa;" horiz-adv-x="1021" 
d="M132 322v1055h253v-1035c0 -121 38 -162 110 -162c50 0 101 29 139 81v1116h253v-1377h-193l-25 147h-1c-79 -125 -183 -163 -284 -163c-160 0 -252 113 -252 338zM521 1462l-125 105l290 416l169 -137z" />
    <glyph glyph-name="ugrave" unicode="&#xf9;" horiz-adv-x="1021" 
d="M132 322v1055h253v-1035c0 -121 38 -162 110 -162c50 0 101 29 139 81v1116h253v-1377h-193l-25 147h-1c-79 -125 -183 -163 -284 -163c-160 0 -252 113 -252 338zM521 1462l-334 384l169 137l290 -416z" />
    <glyph glyph-name="udieresis" unicode="&#xfc;" horiz-adv-x="1021" 
d="M132 322v1055h253v-1035c0 -121 38 -162 110 -162c50 0 101 29 139 81v1116h253v-1377h-193l-25 147h-1c-79 -125 -183 -163 -284 -163c-160 0 -252 113 -252 338zM736 1566c-104 0 -136 55 -136 162c0 114 30 171 136 171c109 0 146 -54 146 -171
c0 -103 -37 -162 -146 -162zM299 1566c-104 0 -137 55 -137 162c0 114 31 171 137 171c109 0 145 -54 145 -171c0 -103 -36 -162 -145 -162z" />
    <glyph glyph-name="yacute" unicode="&#xfd;" horiz-adv-x="898" 
d="M85 -265c153 -22 258 62 266 257l-326 1385h257l145 -762l42 -263h8l29 263l117 762h249l-290 -1428c-51 -264 -151 -394 -365 -394c-42 0 -87 8 -133 25zM463 1462l-125 105l290 416l169 -137z" />
    <glyph glyph-name="ydieresis" unicode="&#xff;" horiz-adv-x="898" 
d="M85 -265c153 -22 258 62 266 257l-326 1385h257l145 -762l42 -263h8l29 263l117 762h249l-290 -1428c-51 -264 -151 -394 -365 -394c-42 0 -87 8 -133 25zM678 1566c-104 0 -136 55 -136 162c0 114 30 171 136 171c109 0 146 -54 146 -171c0 -103 -37 -162 -146 -162z
M241 1566c-104 0 -137 55 -137 162c0 114 31 171 137 171c109 0 145 -54 145 -171c0 -103 -36 -162 -145 -162z" />
    <glyph glyph-name="Yacute" unicode="&#xdd;" horiz-adv-x="959" 
d="M349 0v569l-344 1139h261l209 -817h12l207 817h260l-346 -1139v-569h-259zM480 1733l-105 117l321 216l129 -167z" />
    <glyph glyph-name="degree" unicode="&#xb0;" horiz-adv-x="889" 
d="M439 1072c-225 0 -333 175 -333 356c0 190 103 367 333 367s344 -174 344 -367c0 -172 -114 -356 -344 -356zM436 1265c99 0 147 82 147 160c0 93 -48 177 -147 177c-90 0 -130 -85 -130 -177c0 -82 42 -160 130 -160z" />
    <glyph glyph-name="ring" unicode="&#x2da;" horiz-adv-x="866" 
d="M428 1451c-213 0 -314 150 -314 306c0 161 97 308 314 308c218 0 324 -144 324 -308c0 -148 -106 -306 -324 -306zM427 1614c106 0 158 72 158 139c0 82 -52 149 -158 149c-96 0 -139 -69 -139 -149c0 -70 45 -139 139 -139z" />
    <glyph glyph-name="ring.cap" horiz-adv-x="866" 
d="M428 1480c-213 0 -314 145 -314 296c0 155 97 289 314 289c218 0 324 -130 324 -289c0 -143 -106 -296 -324 -296zM427 1643c106 0 158 67 158 129c0 75 -52 131 -158 131c-96 0 -139 -57 -139 -131c0 -65 45 -129 139 -129z" />
    <glyph glyph-name="aring" unicode="&#xe5;" horiz-adv-x="924" 
d="M334 -15c-170 0 -266 143 -266 331c0 226 112 345 322 449c50 25 121 54 170 72v182c0 107 -8 189 -115 189c-72 0 -140 -49 -140 -207v-60h-193c-12 52 -18 93 -18 136c0 205 149 316 359 316c274 0 353 -118 353 -362v-1031h-188l-18 118c-54 -78 -150 -133 -266 -133z
M446 180c42 0 86 25 114 57v431c-26 -11 -61 -24 -99 -48c-71 -44 -145 -130 -145 -265c0 -105 39 -175 130 -175zM422 1451c-213 0 -314 150 -314 306c0 161 97 308 314 308c218 0 324 -144 324 -308c0 -148 -106 -306 -324 -306zM421 1614c106 0 158 72 158 139
c0 82 -52 149 -158 149c-96 0 -139 -69 -139 -149c0 -70 45 -139 139 -139z" />
    <glyph glyph-name="Aring" unicode="&#xc5;" horiz-adv-x="964" 
d="M18 0l284 1526c-90 54 -133 151 -133 250c0 155 97 289 314 289c218 0 324 -130 324 -289c0 -96 -48 -197 -145 -252l285 -1524h-260l-47 306h-316l-45 -306h-261zM482 1643c106 0 158 67 158 129c0 75 -52 131 -158 131c-96 0 -139 -57 -139 -131
c0 -65 45 -129 139 -129zM354 501h256l-122 855h-11z" />
    <glyph glyph-name="asciitilde" unicode="~" horiz-adv-x="1304" 
d="M130 450c-27 347 125 450 298 450c266 0 316 -312 448 -312c92 0 128 99 96 281h192c59 -313 -95 -470 -264 -470c-273 0 -337 309 -466 309c-101 0 -141 -105 -118 -258h-186z" />
    <glyph glyph-name="tilde" unicode="&#x2dc;" horiz-adv-x="975" 
d="M653 1536c-82 0 -136 27 -192 78c-64 56 -81 86 -122 86c-28 0 -43 -24 -43 -64v-72h-178c-1 15 -4 68 -4 82c0 187 103 246 221 246c78 0 127 -26 180 -77c35 -33 84 -88 126 -88c29 0 50 18 50 59v87h159c8 -47 11 -81 11 -106c0 -153 -100 -231 -208 -231z" />
    <glyph glyph-name="atilde" unicode="&#xe3;" horiz-adv-x="924" 
d="M334 -15c-170 0 -266 143 -266 331c0 226 112 345 322 449c50 25 121 54 170 72v182c0 107 -8 189 -115 189c-72 0 -140 -49 -140 -207v-60h-193c-12 52 -18 93 -18 136c0 205 149 316 359 316c274 0 353 -118 353 -362v-1031h-188l-18 118c-54 -78 -150 -133 -266 -133z
M446 180c42 0 86 25 114 57v431c-26 -11 -61 -24 -99 -48c-71 -44 -145 -130 -145 -265c0 -105 39 -175 130 -175zM588 1587c-82 0 -136 27 -192 78c-64 56 -81 86 -122 86c-28 0 -43 -24 -43 -64v-72h-178c-1 15 -4 68 -4 82c0 187 103 246 221 246c78 0 127 -26 180 -77
c35 -33 84 -88 126 -88c29 0 50 18 50 59v87h159c8 -47 11 -81 11 -106c0 -153 -100 -231 -208 -231z" />
    <glyph glyph-name="tilde.cap" horiz-adv-x="975" 
d="M653 1729c-82 0 -136 24 -192 69c-64 56 -81 86 -122 86c-28 0 -43 -24 -43 -64v-72h-178c-1 15 -4 68 -4 81c0 180 103 237 221 237c78 0 127 -23 180 -67c35 -33 84 -88 126 -88c29 0 50 18 50 58v78h159c8 -48 11 -81 11 -106c0 -139 -100 -212 -208 -212z" />
    <glyph glyph-name="Atilde" unicode="&#xc3;" horiz-adv-x="967" 
d="M19 0l315 1708h298l316 -1708h-262l-47 306h-312l-45 -306h-263zM357 501h252l-120 851h-11zM650 1729c-82 0 -136 24 -192 69c-64 56 -81 86 -122 86c-28 0 -43 -24 -43 -64v-72h-178c-1 15 -4 68 -4 81c0 180 103 237 221 237c78 0 127 -23 180 -67
c35 -33 84 -88 126 -88c29 0 50 18 50 58v78h159c8 -48 11 -81 11 -106c0 -139 -100 -212 -208 -212z" />
    <glyph glyph-name="macron" unicode="&#xaf;" horiz-adv-x="851" 
d="M114 1633v193h623v-193h-623z" />
    <glyph glyph-name="macron.cap" horiz-adv-x="851" 
d="M114 1874v192h623v-192h-623z" />
    <glyph glyph-name="cedilla" unicode="&#xb8;" horiz-adv-x="594" 
d="M472 -1l6 -103c17 -285 -150 -315 -213 -315c-55 0 -96 9 -151 30l7 151c11 -1 22 -1 33 -1c90 0 147 28 154 183l2 44l93 148z" />
    <glyph glyph-name="ccedilla" unicode="&#xe7;" horiz-adv-x="871" 
d="M451 -15c-232 0 -357 189 -357 579v260c0 526 248 569 387 569c187 0 316 -97 316 -303c0 -63 -6 -106 -17 -149h-202v46c0 138 -31 221 -105 221c-82 0 -123 -69 -123 -306v-391c0 -240 30 -331 129 -331c51 0 99 45 99 190v43h218v-53c0 -261 -116 -375 -345 -375z
M543 4l6 -103c17 -285 -150 -315 -213 -315c-55 0 -96 9 -151 30l7 151c11 -1 22 -1 33 -1c90 0 147 28 154 183l2 44l93 148z" />
    <glyph glyph-name="Otilde" unicode="&#xd5;" horiz-adv-x="1070" 
d="M537 -15c-166 0 -425 58 -425 571v605c0 515 265 562 425 562c154 0 421 -39 421 -562v-605c0 -507 -272 -571 -421 -571zM537 180c102 0 151 63 151 275v777c0 219 -49 287 -151 287c-105 0 -154 -68 -154 -287v-777c0 -212 49 -275 154 -275zM698 1729
c-82 0 -136 24 -192 69c-64 56 -81 86 -122 86c-28 0 -43 -24 -43 -64v-72h-178c-1 15 -4 68 -4 81c0 180 103 237 221 237c78 0 127 -23 180 -67c35 -33 84 -88 126 -88c29 0 50 18 50 58v78h159c8 -48 11 -81 11 -106c0 -139 -100 -212 -208 -212z" />
    <glyph glyph-name="otilde" unicode="&#xf5;" horiz-adv-x="958" 
d="M481 -15c-176 0 -383 62 -383 606v216c0 535 213 586 384 586c165 0 378 -44 378 -586v-216c0 -535 -220 -606 -379 -606zM483 180c91 0 123 85 123 343v339c0 258 -32 346 -123 346c-95 0 -131 -88 -131 -346v-339c0 -258 36 -343 131 -343zM644 1587
c-82 0 -136 27 -192 78c-64 56 -81 86 -122 86c-28 0 -43 -24 -43 -64v-72h-178c-1 15 -4 68 -4 82c0 187 103 246 221 246c78 0 127 -26 180 -77c35 -33 84 -88 126 -88c29 0 50 18 50 59v87h159c8 -47 11 -81 11 -106c0 -153 -100 -231 -208 -231z" />
    <glyph glyph-name="ntilde" unicode="&#xf1;" horiz-adv-x="1021" 
d="M131 0v1377h195l23 -147v-1c79 126 187 164 288 164c160 0 252 -114 252 -338v-1055h-253v1046c0 121 -38 162 -110 162c-51 0 -104 -36 -142 -94v-1114h-253zM702 1587c-82 0 -136 27 -192 78c-64 56 -81 86 -122 86c-28 0 -43 -24 -43 -64v-72h-178c-1 15 -4 68 -4 82
c0 187 103 246 221 246c78 0 127 -26 180 -77c35 -33 84 -88 126 -88c29 0 50 18 50 59v87h159c8 -47 11 -81 11 -106c0 -153 -100 -231 -208 -231z" />
    <glyph glyph-name="Ntilde" unicode="&#xd1;" horiz-adv-x="1123" 
d="M144 0v1708h210l414 -1143h6c-9 106 -27 255 -27 520v623h232v-1708h-212l-412 1113h-8c9 -121 27 -265 27 -611v-502h-230zM728 1729c-82 0 -136 24 -192 69c-64 56 -81 86 -122 86c-28 0 -43 -24 -43 -64v-72h-178c-1 15 -4 68 -4 81c0 180 103 237 221 237
c78 0 127 -23 180 -67c35 -33 84 -88 126 -88c29 0 50 18 50 58v78h159c8 -48 11 -81 11 -106c0 -139 -100 -212 -208 -212z" />
    <glyph glyph-name="Ccedilla" unicode="&#xc7;" horiz-adv-x="936" 
d="M514 -15c-162 0 -415 58 -415 571v605c0 515 259 562 414 562c271 0 357 -164 357 -362c0 -73 -7 -130 -22 -204h-210v87c0 187 -43 281 -122 281c-95 0 -145 -68 -145 -287v-780c0 -212 38 -277 143 -277c67 0 127 61 127 198v167h237v-158c0 -274 -129 -402 -364 -403z
M603 -1l6 -103c17 -285 -150 -315 -213 -315c-55 0 -96 9 -151 30l7 151c11 -1 22 -1 33 -1c90 0 147 28 154 183l2 44l93 148z" />
    <glyph glyph-name="circumflex" unicode="&#x2c6;" horiz-adv-x="948" 
d="M615 1485l-88 212l-51 172l-50 -172l-94 -212h-218l270 581h174l276 -581h-219z" />
    <glyph glyph-name="circumflex.cap" horiz-adv-x="958" 
d="M595 1756l-69 130l-40 56l-40 -56l-84 -130h-248l250 310h234l246 -310h-249z" />
    <glyph glyph-name="acircumflex" unicode="&#xe2;" horiz-adv-x="924" 
d="M334 -15c-170 0 -266 143 -266 331c0 226 112 345 322 449c50 25 121 54 170 72v182c0 107 -8 189 -115 189c-72 0 -140 -49 -140 -207v-60h-193c-12 52 -18 93 -18 136c0 205 149 316 359 316c274 0 353 -118 353 -362v-1031h-188l-18 118c-54 -78 -150 -133 -266 -133z
M446 180c42 0 86 25 114 57v431c-26 -11 -61 -24 -99 -48c-71 -44 -145 -130 -145 -265c0 -105 39 -175 130 -175zM563 1485l-88 212l-51 172l-50 -172l-94 -212h-218l270 581h174l276 -581h-219z" />
    <glyph glyph-name="ucircumflex" unicode="&#xfb;" horiz-adv-x="1021" 
d="M132 322v1055h253v-1035c0 -121 38 -162 110 -162c50 0 101 29 139 81v1116h253v-1377h-193l-25 147h-1c-79 -125 -183 -163 -284 -163c-160 0 -252 113 -252 338zM662 1485l-88 212l-51 172l-50 -172l-94 -212h-218l270 581h174l276 -581h-219z" />
    <glyph glyph-name="Acircumflex" unicode="&#xc2;" horiz-adv-x="967" 
d="M19 0l315 1708h298l316 -1708h-262l-47 306h-312l-45 -306h-263zM357 501h252l-120 851h-11zM595 1756l-69 130l-40 56l-40 -56l-84 -130h-248l250 310h234l246 -310h-249z" />
    <glyph glyph-name="Ocircumflex" unicode="&#xd4;" horiz-adv-x="1070" 
d="M537 -15c-166 0 -425 58 -425 571v605c0 515 265 562 425 562c154 0 421 -39 421 -562v-605c0 -507 -272 -571 -421 -571zM537 180c102 0 151 63 151 275v777c0 219 -49 287 -151 287c-105 0 -154 -68 -154 -287v-777c0 -212 49 -275 154 -275zM643 1756l-69 130l-40 56
l-40 -56l-84 -130h-248l250 310h234l246 -310h-249z" />
    <glyph glyph-name="Icircumflex" unicode="&#xce;" horiz-adv-x="551" 
d="M146 0v1708h259v-1708h-259zM385 1756l-69 130l-40 56l-40 -56l-84 -130h-248l250 310h234l246 -310h-249z" />
    <glyph glyph-name="Itilde" unicode="&#x128;" horiz-adv-x="551" 
d="M146 0v1708h259v-1708h-259zM440 1729c-82 0 -136 24 -192 69c-64 56 -81 86 -122 86c-28 0 -43 -24 -43 -64v-72h-178c-1 15 -4 68 -4 81c0 180 103 237 221 237c78 0 127 -23 180 -67c35 -33 84 -88 126 -88c29 0 50 18 50 58v78h159c8 -48 11 -81 11 -106
c0 -139 -100 -212 -208 -212z" />
    <glyph glyph-name="Ecircumflex" unicode="&#xca;" horiz-adv-x="830" 
d="M146 0v1708h633v-204h-374v-511h289v-204h-289v-585h384v-204h-643zM590 1756l-69 130l-40 56l-40 -56l-84 -130h-248l250 310h234l246 -310h-249z" />
    <glyph glyph-name="icircumflex" unicode="&#xee;" horiz-adv-x="521" 
d="M134 0v1377h253v-1377h-253zM402 1485l-88 212l-51 172l-50 -172l-94 -212h-218l270 581h174l276 -581h-219z" />
    <glyph glyph-name="ocircumflex" unicode="&#xf4;" horiz-adv-x="958" 
d="M481 -15c-176 0 -383 62 -383 606v216c0 535 213 586 384 586c165 0 378 -44 378 -586v-216c0 -535 -220 -606 -379 -606zM483 180c91 0 123 85 123 343v339c0 258 -32 346 -123 346c-95 0 -131 -88 -131 -346v-339c0 -258 36 -343 131 -343zM619 1485l-88 212l-51 172
l-50 -172l-94 -212h-218l270 581h174l276 -581h-219z" />
    <glyph glyph-name="Eth" unicode="&#xd0;" horiz-adv-x="1037" 
d="M128 0v817h-85v202h85v706h278c193 0 535 -29 535 -596v-523c0 -578 -342 -606 -535 -606h-278zM387 180h31c185 0 254 118 254 378v591c0 244 -61 370 -254 370h-31v-500h158v-202h-158v-637z" />
    <glyph glyph-name="caron" unicode="&#x2c7;" horiz-adv-x="948" 
d="M558 1485h-174l-270 581h218l94 -212l50 -171l51 171l88 212h219z" />
    <glyph glyph-name="caron.cap" horiz-adv-x="958" 
d="M598 1756h-234l-250 310h248l84 -130l40 -56l40 56l69 130h249z" />
    <glyph glyph-name="rcaron" unicode="&#x159;" horiz-adv-x="792" 
d="M134 0v1377h185l22 -140c55 104 132 156 208 156c145 0 213 -90 213 -268c0 -46 -15 -131 -34 -187h-176v128c0 111 -30 142 -67 142c-40 0 -75 -28 -98 -74v-1134h-253zM564 1485h-174l-270 581h218l94 -212l50 -171l51 171l88 212h219z" />
    <glyph glyph-name="Rcaron" unicode="&#x158;" horiz-adv-x="1070" 
d="M146 0v1708h281c193 0 518 -24 518 -488v-43c0 -259 -77 -422 -221 -494l274 -683h-274l-227 639h-97v-639h-254zM400 826h39c182 0 246 74 246 304v135c0 176 -57 254 -246 254h-39v-693zM687 1756h-234l-250 310h248l84 -130l40 -56l40 56l69 130h249z" />
    <glyph glyph-name="Ucircumflex" unicode="&#xdb;" horiz-adv-x="1105" 
d="M144 525v1183h261v-1252c0 -212 42 -276 144 -276s151 64 151 276v1252h258v-1183c0 -502 -260 -540 -409 -540c-148 0 -405 38 -405 540zM671 1756l-69 130l-40 56l-40 -56l-84 -130h-248l250 310h234l246 -310h-249z" />
    <glyph glyph-name="itilde" unicode="&#x129;" horiz-adv-x="521" 
d="M134 0v1377h253v-1377h-253zM427 1587c-82 0 -136 27 -192 78c-64 56 -81 86 -122 86c-28 0 -43 -24 -43 -64v-72h-178c-1 15 -4 68 -4 82c0 187 103 246 221 246c78 0 127 -26 180 -77c35 -33 84 -88 126 -88c29 0 50 18 50 59v87h159c8 -47 11 -81 11 -106
c0 -153 -100 -231 -208 -231z" />
    <glyph glyph-name="jcircumflex" unicode="&#x135;" horiz-adv-x="521" 
d="M134 -116v1493h253v-1461c0 -300 -131 -360 -272 -360c-40 0 -82 6 -122 24v147c10 -1 21 -2 32 -2c59 0 109 39 109 159zM406 1485l-88 212l-51 172l-50 -172l-94 -212h-218l270 581h174l276 -581h-219z" />
    <glyph glyph-name="ecircumflex" unicode="&#xea;" horiz-adv-x="924" 
d="M468 -15c-237 0 -368 169 -368 579v260c0 526 251 569 397 569c182 0 347 -98 347 -430c0 -111 -13 -234 -33 -322h-457v-140c0 -240 32 -321 147 -321c62 0 120 45 120 190v43h211v-53c0 -261 -128 -375 -364 -375zM354 811h254c3 29 4 105 4 141
c0 182 -43 256 -127 256c-89 0 -131 -76 -131 -313v-84zM627 1485l-88 212l-51 172l-50 -172l-94 -212h-218l270 581h174l276 -581h-219z" />
    <glyph glyph-name="Jcircumflex" unicode="&#x134;" horiz-adv-x="831" 
d="M354 -16c-257 0 -339 172 -339 378c0 72 9 167 28 257h207l-3 -208c0 -176 30 -231 104 -231c62 0 100 43 100 198l3 1330h259v-1294c0 -353 -175 -430 -359 -430zM694 1756l-69 130l-40 56l-40 -56l-84 -130h-248l250 310h234l246 -310h-249z" />
    <glyph glyph-name="asterisk" unicode="*" horiz-adv-x="1048" 
d="M366 844l-199 149l237 246l-325 61l71 239l299 -162l-46 350h246l-54 -350l301 157l73 -239l-331 -56l235 -253l-200 -146l-152 313z" />
    <glyph glyph-name="quoteleft" unicode="&#x2018;" horiz-adv-x="620" 
d="M162 1180v224l150 472h197l-79 -397v-299h-268z" />
    <glyph glyph-name="commaaccent" unicode="&#xf6c3;" horiz-adv-x="531" 
d="M176 -23h241l-108 -434h-195z" />
    <glyph glyph-name="rcommaaccent" unicode="&#x157;" horiz-adv-x="792" 
d="M134 0v1377h185l22 -140c55 104 132 156 208 156c145 0 213 -90 213 -268c0 -46 -15 -131 -34 -187h-176v128c0 111 -30 142 -67 142c-40 0 -75 -28 -98 -74v-1134h-253zM155 -23h241l-108 -434h-195z" />
    <glyph glyph-name="Kcommaaccent" unicode="&#x136;" horiz-adv-x="1021" 
d="M146 0v1708h259v-746h8l296 746h258l-330 -801l367 -907h-277l-314 813h-8v-813h-259zM484 -23h241l-108 -434h-195z" />
    <glyph glyph-name="Rcommaaccent" unicode="&#x156;" horiz-adv-x="1070" 
d="M146 0v1708h281c193 0 518 -24 518 -488v-43c0 -259 -77 -422 -221 -494l274 -683h-274l-227 639h-97v-639h-254zM400 826h39c182 0 246 74 246 304v135c0 176 -57 254 -246 254h-39v-693zM481 -23h241l-108 -434h-195z" />
    <glyph glyph-name="kcommaaccent" unicode="&#x137;" horiz-adv-x="960" 
d="M134 0v1819h253v-1047h8l276 605h243l-306 -630l335 -747h-258l-290 683h-8v-683h-253zM472 -23h241l-108 -434h-195z" />
    <glyph glyph-name="percent" unicode="%" horiz-adv-x="1885" 
d="M479 786c-151 0 -323 64 -323 435v107c0 365 182 420 324 420c137 0 319 -51 319 -420v-107c0 -366 -186 -435 -320 -435zM625 0l460 1727h181l-459 -1727h-182zM481 945c83 0 113 71 113 224v194c0 154 -30 226 -113 226c-87 0 -119 -72 -119 -226v-194
c0 -153 32 -224 119 -224zM1087 420v107c0 365 182 420 323 420c137 0 319 -51 319 -420v-107c0 -367 -186 -435 -320 -435c-151 0 -322 63 -322 435zM1292 368c0 -153 32 -224 119 -224c83 0 113 71 113 224v194c0 154 -30 226 -113 226c-87 0 -119 -72 -119 -226v-194z
" />
    <glyph glyph-name="currency" unicode="&#xa4;" horiz-adv-x="1287" 
d="M254 358l-138 155l181 161c-24 57 -36 120 -36 184c0 70 13 138 38 198l-183 164l138 155l175 -162c53 33 119 52 199 52c88 0 161 -23 219 -61l185 171l139 -155l-197 -175c24 -56 36 -120 36 -187c0 -58 -12 -117 -35 -171l196 -174l-139 -155l-184 170
c-58 -40 -131 -64 -220 -64c-80 0 -147 20 -201 54zM628 691c110 0 164 85 164 164c0 99 -54 184 -164 184c-98 0 -142 -87 -142 -184c0 -83 46 -164 142 -164z" />
    <glyph glyph-name="quoteright" unicode="&#x2019;" horiz-adv-x="620" 
d="M448 1876v-224l-150 -472h-197l79 397v299h268z" />
    <glyph glyph-name="quotesinglbase" unicode="&#x201a;" horiz-adv-x="620" 
d="M448 238v-224l-150 -472h-197l79 397v299h268z" />
    <glyph glyph-name="quotedblleft" unicode="&#x201c;" horiz-adv-x="1092" 
d="M162 1180v224l150 472h197l-79 -397v-299h-268zM634 1180v224l150 472h197l-79 -397v-299h-268z" />
    <glyph glyph-name="quotedblright" unicode="&#x201d;" horiz-adv-x="1088" 
d="M448 1878v-224l-150 -472h-197l79 397v299h268zM916 1878v-224l-150 -472h-197l79 397v299h268z" />
    <glyph glyph-name="quotedblbase" unicode="&#x201e;" horiz-adv-x="1092" 
d="M448 238v-224l-150 -472h-197l79 397v299h268zM920 238v-224l-150 -472h-197l79 397v299h268z" />
    <glyph glyph-name="two" unicode="2" horiz-adv-x="992" 
d="M102 0v152l377 726c138 265 168 384 168 473c0 140 -50 184 -147 184c-117 0 -167 -101 -167 -281v-97h-200c-14 74 -27 131 -27 204c0 173 117 362 394 362c298 0 420 -143 420 -387c0 -139 -48 -258 -184 -492l-337 -640h499v-204h-796z" />
    <glyph glyph-name="three" unicode="3" horiz-adv-x="1035" 
d="M100 348c0 57 8 128 25 201h202v-87c0 -213 75 -282 175 -282c99 0 161 54 161 198v189c0 145 -46 225 -179 225h-109v185h109c86 0 154 54 154 195v179c0 126 -50 184 -147 184c-107 0 -168 -101 -168 -281v-97h-200c-14 66 -27 131 -27 204c0 173 126 362 395 362
c291 0 411 -137 411 -378v-105c0 -194 -107 -298 -210 -347v-8c133 -45 235 -140 235 -364v-113c0 -315 -195 -423 -425 -423c-261 0 -402 133 -402 363z" />
    <glyph glyph-name="four" unicode="4" horiz-adv-x="1100" 
d="M81 306v136l498 1266h309v-1199h158v-203h-158v-306h-241v306h-566zM345 509h302v252l24 644h-30z" />
    <glyph glyph-name="five" unicode="5" horiz-adv-x="1030" 
d="M126 351c0 62 8 125 25 198h202v-140c0 -162 45 -229 152 -229c109 0 150 82 150 229v330c0 170 -62 204 -141 204c-75 0 -127 -48 -162 -107h-191v872h734v-229h-518v-422c56 63 146 102 238 102c212 0 307 -145 307 -422v-290c0 -351 -196 -462 -405 -462
c-254 0 -391 142 -391 366z" />
    <glyph glyph-name="six" unicode="6" horiz-adv-x="1050" 
d="M108 507v702c0 473 280 514 439 514c276 0 384 -152 384 -325c0 -47 -9 -106 -27 -161h-197v52c0 207 -49 254 -160 254c-114 0 -177 -74 -177 -246v-329c51 55 135 99 242 99c155 0 335 -84 335 -422v-166c0 -364 -158 -494 -405 -494c-279 0 -434 141 -434 522z
M370 410c0 -156 52 -230 169 -230c102 0 149 74 149 220v254c0 165 -60 219 -153 219c-73 0 -131 -47 -165 -93v-370z" />
    <glyph glyph-name="seven" unicode="7" horiz-adv-x="848" 
d="M70 0l473 1480h-502v229h780v-137l-470 -1572h-281z" />
    <glyph glyph-name="eight" unicode="8" horiz-adv-x="1042" 
d="M87 414v105c0 201 91 305 212 365v8c-89 47 -188 142 -188 327v120c0 334 258 384 411 384c154 0 412 -49 412 -383v-120c0 -185 -99 -280 -188 -327v-8c122 -60 212 -164 212 -365v-105c0 -352 -230 -430 -437 -430s-434 77 -434 429zM510 976h24c78 0 140 45 140 202
v141c0 140 -45 216 -152 216s-150 -77 -150 -218v-140c0 -151 53 -201 138 -201zM350 393c0 -174 83 -213 171 -213s174 40 174 214v188c0 149 -64 209 -161 209h-25c-97 0 -159 -65 -159 -210v-188z" />
    <glyph glyph-name="nine" unicode="9" horiz-adv-x="1039" 
d="M924 1211v-712c0 -473 -274 -514 -429 -514c-283 0 -394 152 -394 325c0 47 9 106 27 161h197v-37c0 -207 52 -254 170 -254c107 0 167 74 167 246v314c-51 -55 -132 -99 -239 -99c-155 0 -338 84 -338 422v166c0 364 158 494 405 494c279 0 434 -131 434 -512zM662 1326
c0 156 -52 210 -169 210c-102 0 -149 -74 -149 -220v-262c0 -165 60 -219 153 -219c73 0 131 47 165 93v398z" />
    <glyph glyph-name="question" unicode="?" horiz-adv-x="1026" 
d="M391 557l1 203c0 106 7 150 65 243l118 186c51 82 82 176 82 250c0 109 -60 184 -157 184c-107 0 -157 -100 -157 -280v-82h-204c-14 74 -27 131 -27 204c0 202 121 362 398 362c276 0 413 -153 413 -388c0 -132 -48 -239 -151 -379l-80 -108c-76 -103 -80 -139 -80 -251
v-144h-221zM360 177c0 140 60 196 156 196c99 0 157 -64 157 -196c0 -121 -59 -191 -158 -191c-94 0 -155 66 -155 191z" />
    <glyph glyph-name="questiondown" unicode="&#xbf;" horiz-adv-x="1026" 
d="M625 832l-1 -203c0 -106 -7 -150 -65 -243l-118 -186c-51 -82 -82 -176 -82 -250c0 -109 60 -184 157 -184c107 0 157 100 157 280v82h204c14 -74 27 -131 27 -204c0 -202 -121 -362 -398 -362c-276 0 -413 153 -413 388c0 132 48 239 151 379l80 108
c76 103 80 139 80 251v144h221zM656 1212c0 -140 -60 -196 -156 -196c-99 0 -157 64 -157 196c0 121 59 191 158 191c94 0 155 -66 155 -191z" />
    <glyph glyph-name="multiply" unicode="&#xd7;" horiz-adv-x="860" 
d="M196 419l-130 132l234 239l-234 239l130 132l234 -239l235 239l130 -132l-235 -239l235 -239l-130 -132l-235 238z" />
    <glyph glyph-name="sterling" unicode="&#xa3;" horiz-adv-x="1006" 
d="M98 0v152c111 51 97 233 97 439v110h-129v179h129v344c0 331 116 499 386 499c253 0 351 -171 351 -352c0 -64 -10 -140 -26 -214h-201v71c0 215 -52 292 -131 292c-83 0 -124 -65 -124 -296v-344h279v-179h-279v-138c0 -160 -21 -275 -78 -359h536v-204h-810z" />
    <glyph glyph-name="braceleft" unicode="{" horiz-adv-x="896" 
d="M284 129v422c0 160 -55 207 -156 213l-52 3v179l51 3c101 6 156 53 156 212v419c0 276 152 384 332 384c43 0 98 -10 150 -26v-154h-38c-164 0 -219 -34 -219 -138v-401c0 -196 -36 -319 -162 -376v-26c123 -57 162 -180 162 -375v-405c0 -104 55 -139 219 -139h38v-153
c-52 -17 -107 -27 -150 -27c-180 0 -331 108 -331 385z" />
    <glyph glyph-name="braceright" unicode="}" horiz-adv-x="896" 
d="M131 -76h38c164 0 219 35 219 139v405c0 195 39 318 161 375v26c-125 57 -161 180 -161 376v401c0 104 -55 138 -219 138h-38v154c52 16 106 26 150 26c180 0 332 -108 332 -384v-419c0 -159 55 -206 156 -212l51 -3v-179l-52 -3c-101 -6 -156 -53 -156 -213v-422
c0 -277 -151 -385 -331 -385c-44 0 -98 10 -150 27v153z" />
    <glyph glyph-name="twosuperior" unicode="&#xb2;" horiz-adv-x="864" 
d="M116 677v118l266 398c105 152 116 229 116 295c0 75 -31 108 -91 108c-59 0 -100 -52 -100 -151v-53h-184c-9 52 -14 74 -14 112c0 152 113 257 309 257c132 0 319 -40 319 -273c0 -102 -30 -191 -145 -354l-198 -284h344v-173h-622z" />
    <glyph glyph-name="threesuperior" unicode="&#xb3;" horiz-adv-x="861" 
d="M401 666c-226 0 -315 125 -315 247c0 41 4 77 14 133h186v-46c0 -127 50 -170 115 -170c82 0 112 50 112 116v73c0 99 -51 139 -116 139h-80v135h80c58 0 106 34 106 125v71c0 62 -28 108 -102 108c-59 0 -105 -40 -105 -159v-46h-182c-11 51 -14 84 -14 122
c0 122 90 247 309 247c140 0 316 -46 316 -261v-63c-10 -93 -46 -170 -132 -207v-8c90 -37 142 -117 142 -211v-65c0 -232 -190 -280 -334 -280z" />
    <glyph glyph-name="onesuperior" unicode="&#xb9;" horiz-adv-x="770" 
d="M160 677v162h127v611l-133 -112l-88 132l265 256h178v-887h134v-162h-483z" />
    <glyph glyph-name="onequarter" unicode="&#xbc;" horiz-adv-x="1825" 
d="M1002 185v96l373 788h257v-730h87v-154h-87v-184h-222v184h-408zM1223 339h187v37l26 420h-12zM772 0h-182l459 1709h182zM201 677v162h127v611l-133 -112l-88 132l265 256h178v-887h134v-162h-483z" />
    <glyph glyph-name="onehalf" unicode="&#xbd;" horiz-adv-x="1861" 
d="M772 0h-182l459 1709h182zM201 677v162h127v611l-133 -112l-88 132l265 256h178v-887h134v-162h-483zM1123 0v118l266 398c105 152 116 229 116 295c0 75 -31 108 -91 108c-59 0 -100 -52 -100 -151v-53h-184c-9 52 -14 74 -14 112c0 152 113 257 309 257
c132 0 319 -40 319 -273c0 -102 -30 -191 -145 -354l-198 -284h344v-173h-622z" />
    <glyph glyph-name="threequarters" unicode="&#xbe;" horiz-adv-x="1869" 
d="M1046 185v96l373 788h258v-730h86v-154h-86v-184h-223v184h-408zM1267 339h187v37l27 420h-13zM814 0h-182l459 1709h182zM431 666c-226 0 -315 125 -315 247c0 41 4 77 14 133h186v-46c0 -127 50 -170 115 -170c82 0 112 50 112 116v73c0 99 -51 139 -116 139h-80v135
h80c58 0 106 34 106 125v71c0 62 -28 108 -102 108c-59 0 -105 -40 -105 -159v-46h-182c-11 51 -14 84 -14 122c0 122 90 247 309 247c140 0 316 -46 316 -261v-63c-10 -93 -46 -170 -132 -207v-8c90 -37 142 -117 142 -211v-65c0 -232 -190 -280 -334 -280z" />
    <glyph glyph-name="germandbls" unicode="&#xdf;" horiz-adv-x="1036" 
d="M134 -443v1851c0 283 156 420 400 420c269 0 390 -148 390 -354c0 -112 -32 -205 -99 -340c-64 -105 -73 -146 -73 -186c0 -46 17 -89 49 -158l92 -197c46 -125 74 -201 74 -296c0 -161 -76 -316 -269 -316c-61 0 -111 12 -156 30v176c30 -7 36 -7 65 -7
c48 0 103 28 103 116c0 67 -28 137 -62 213l-72 161c-37 82 -66 154 -66 237c0 73 24 126 88 233c81 135 88 208 88 296c0 110 -54 193 -157 193c-79 0 -142 -38 -142 -144v-1928h-253z" />
    <glyph glyph-name="at" unicode="@" horiz-adv-x="1649" 
d="M90 513v432c0 727 411 875 733 875c332 0 736 -116 736 -843v-212c0 -374 -56 -650 -314 -650c-137 0 -216 61 -253 193c-46 -124 -130 -192 -228 -192c-105 0 -295 21 -295 478v243c0 412 178 462 279 462c93 0 158 -54 200 -124l19 109h196v-834
c0 -118 45 -151 91 -151c60 0 107 52 107 398v280c0 637 -328 669 -536 669c-210 0 -538 -64 -538 -701v-471c0 -652 349 -693 597 -693c78 0 199 14 270 43v-160c-52 -37 -205 -67 -327 -67c-256 0 -737 99 -737 916zM821 312c50 0 81 38 102 83v622c-21 51 -53 89 -101 89
c-58 0 -113 -37 -113 -242v-318c0 -197 46 -234 112 -234z" />
    <glyph glyph-name="a" unicode="a" horiz-adv-x="924" 
d="M320 -15c-170 0 -266 143 -266 331c0 226 112 345 322 449c50 25 121 54 170 72v182c0 107 -8 189 -115 189c-72 0 -140 -49 -140 -207v-60h-193c-12 52 -18 93 -18 136c0 205 149 316 359 316c274 0 353 -118 353 -362v-1031h-188l-18 118c-54 -78 -150 -133 -266 -133z
M432 180c42 0 86 25 114 57v431c-26 -11 -61 -24 -99 -48c-71 -44 -145 -130 -145 -265c0 -105 39 -175 130 -175z" />
    <glyph glyph-name="ellipsis" unicode="&#x2026;" horiz-adv-x="1483" 
d="M91 179c0 141 60 198 156 198c99 0 157 -65 157 -198c0 -122 -59 -193 -158 -193c-94 0 -155 67 -155 193zM581 179c0 141 60 198 156 198c99 0 157 -65 157 -198c0 -122 -59 -193 -158 -193c-94 0 -155 67 -155 193zM1072 179c0 141 60 198 156 198
c99 0 157 -65 157 -198c0 -122 -59 -193 -158 -193c-94 0 -155 67 -155 193z" />
    <glyph glyph-name="copyright" unicode="&#xa9;" horiz-adv-x="1458" 
d="M104 694v336c0 621 388 710 628 710c232 0 622 -80 622 -710v-336c0 -630 -392 -709 -624 -709c-240 0 -626 88 -626 709zM260 670c0 -492 286 -550 470 -550c178 0 468 51 470 550v384c0 499 -290 550 -468 550c-184 0 -472 -58 -472 -550v-384zM756 292
c-128 0 -335 45 -335 444v257c0 400 212 437 334 437c211 0 279 -138 279 -251c0 -57 -7 -101 -18 -159h-164v56c0 123 -36 187 -102 187c-73 0 -113 -52 -113 -223v-367c0 -165 39 -214 119 -214c56 0 97 46 97 152v85h185v-74c0 -213 -100 -329 -282 -330z" />
    <glyph glyph-name="registered" unicode="&#xae;" horiz-adv-x="1479" 
d="M740 184c-228 0 -636 90 -636 695v166c0 606 410 695 638 695c219 0 633 -80 633 -695v-166c0 -615 -416 -695 -635 -695zM740 330c190 0 478 59 480 541v182c0 483 -288 541 -478 541c-196 0 -482 -66 -482 -541v-182c0 -475 284 -541 480 -541zM478 562v825h183
c151 0 372 -12 372 -252v-30c0 -99 -46 -175 -129 -212l187 -331h-207l-128 280h-95v-280h-183zM661 968h31c104 0 141 42 141 134v42c0 72 -33 117 -141 117h-31v-293z" />
    <glyph glyph-name="ampersand" unicode="&#x26;" horiz-adv-x="1211" 
d="M55 410c0 227 170 402 258 503l27 29l-34 61c-70 126 -133 279 -133 429c0 232 170 378 378 378c272 0 344 -186 344 -308c0 -247 -186 -425 -269 -522l-22 -25l258 -469c23 73 36 155 36 238c0 44 -1 81 -4 117h209c6 -35 10 -77 10 -117c0 -158 -54 -314 -139 -441
l156 -282h-268l-56 100c-95 -73 -205 -117 -315 -117c-256 0 -436 154 -436 426zM511 1125l17 18c53 61 149 165 149 315c0 102 -60 148 -126 148c-62 0 -141 -41 -141 -174c0 -90 28 -169 101 -307zM312 445c0 -128 71 -265 234 -265c66 0 125 28 174 76l-284 512
c-79 -99 -124 -213 -124 -323z" />
    <glyph glyph-name="ordfeminine" unicode="&#xaa;" horiz-adv-x="836" 
d="M309 649c-173 0 -240 128 -240 256c0 221 195 322 314 371c25 11 73 32 116 44v159c0 72 -21 118 -91 118c-72 0 -122 -40 -122 -159v-46h-182c-11 51 -14 84 -14 122c0 122 93 247 319 247c269 0 318 -146 318 -289v-804h-172l-17 72c-48 -48 -141 -91 -229 -91z
M400 814c41 0 74 17 99 38v323c-23 -8 -32 -10 -66 -25c-62 -25 -146 -94 -146 -201c0 -80 41 -135 113 -135z" />
    <glyph glyph-name="ordmasculine" unicode="&#xba;" horiz-adv-x="919" 
d="M471 666c-146 0 -344 70 -344 373v350c0 302 198 372 344 372c145 0 343 -71 343 -374v-347c0 -303 -198 -374 -343 -374zM471 830c95 0 122 69 122 209v348c0 141 -27 210 -122 210s-123 -68 -123 -208v-349c0 -142 28 -210 123 -210z" />
    <glyph glyph-name="trademark" unicode="&#x2122;" horiz-adv-x="1597" 
d="M686 873v852h227l126 -363l34 -113h16l35 113l137 363h204v-852h-177v86c0 312 13 397 21 505h-6l-166 -467h-113l-175 467h-7c8 -108 21 -193 21 -505v-86h-177zM218 873v693h-178l1 159h533v-159h-178v-693h-178z" />
    <glyph glyph-name="guilsinglleft" unicode="&#x2039;" horiz-adv-x="834" 
d="M529 305l-385 412v150l389 406l137 -124l-283 -359l279 -360z" />
    <glyph glyph-name="guilsinglright" unicode="&#x203a;" horiz-adv-x="834" 
d="M680 717l-385 -412l-137 125l279 360l-283 359l137 124l389 -406v-150z" />
    <glyph glyph-name="guillemotleft" unicode="&#xab;" horiz-adv-x="1336" 
d="M529 305l-385 412v150l389 406l137 -124l-283 -359l279 -360zM1036 305l-385 412v150l389 406l137 -124l-283 -359l279 -360z" />
    <glyph glyph-name="guillemotright" unicode="&#xbb;" horiz-adv-x="1368" 
d="M693 717l-385 -412l-137 125l279 360l-283 359l137 124l389 -406v-150zM1214 717l-385 -412l-137 125l279 360l-283 359l137 124l389 -406v-150z" />
    <glyph glyph-name="Zcaron" unicode="&#x17d;" horiz-adv-x="865" 
d="M39 0v137l506 1367h-430v204h721v-137l-507 -1367h477v-204h-767zM597 1756h-234l-250 310h248l84 -130l40 -56l40 56l69 130h249z" />
    <glyph glyph-name="zcaron" unicode="&#x17e;" horiz-adv-x="697" 
d="M19 0v126l386 1059h-353v192h624v-126l-387 -1059h389v-192h-659zM432 1485h-174l-270 581h218l94 -212l50 -171l51 171l88 212h219z" />
    <glyph glyph-name="scaron" unicode="&#x161;" horiz-adv-x="820" 
d="M71 288c0 60 14 121 25 154h178c0 -200 37 -262 147 -262c76 0 109 50 109 106c0 59 -32 104 -86 170l-185 218c-96 121 -185 245 -185 405c0 214 158 314 338 314c199 0 327 -96 327 -286c0 -63 -14 -127 -25 -170h-175c-3 181 -21 271 -123 271
c-88 0 -115 -61 -115 -119c0 -64 33 -114 84 -178l202 -237c58 -73 168 -206 168 -367c0 -194 -126 -322 -351 -322c-185 0 -333 76 -333 303zM503 1485h-174l-270 581h218l94 -212l50 -171l51 171l88 212h219z" />
    <glyph glyph-name="Scaron" unicode="&#x160;" horiz-adv-x="946" 
d="M75 346c0 73 9 131 26 202h201v-83c0 -184 42 -285 168 -285c98 0 152 56 152 159c0 106 -25 170 -120 291l-270 321c-95 122 -150 244 -150 385c0 227 144 387 393 387c302 0 391 -189 391 -362c0 -73 -14 -130 -28 -204h-200v81c0 180 -49 281 -166 281
c-97 0 -145 -59 -145 -149c0 -97 31 -148 81 -214l301 -364c110 -143 170 -267 170 -414c0 -242 -157 -394 -407 -394c-309 0 -397 180 -397 362zM591 1756h-234l-250 310h248l84 -130l40 -56l40 56l69 130h249z" />
    <glyph glyph-name="perthousand" unicode="&#x2030;" horiz-adv-x="2676" 
d="M1877 420v107c0 365 182 420 323 420c137 0 319 -51 319 -420v-107c0 -367 -186 -435 -320 -435c-151 0 -322 63 -322 435zM2082 368c0 -153 32 -224 119 -224c83 0 113 71 113 224v194c0 154 -30 226 -113 226c-87 0 -119 -72 -119 -226v-194zM479 786
c-151 0 -323 64 -323 435v107c0 365 182 420 324 420c137 0 319 -51 319 -420v-107c0 -366 -186 -435 -320 -435zM625 0l460 1727h181l-459 -1727h-182zM481 945c83 0 113 71 113 224v194c0 154 -30 226 -113 226c-87 0 -119 -72 -119 -226v-194c0 -153 32 -224 119 -224z
M1087 420v107c0 365 182 420 323 420c137 0 319 -51 319 -420v-107c0 -367 -186 -435 -320 -435c-151 0 -322 63 -322 435zM1292 368c0 -153 32 -224 119 -224c83 0 113 71 113 224v194c0 154 -30 226 -113 226c-87 0 -119 -72 -119 -226v-194z" />
    <glyph glyph-name="florin" unicode="&#x192;" horiz-adv-x="616" 
d="M153 -59v1020h-115v192h115v323c0 299 135 360 303 360c49 0 122 -11 168 -34v-178c-27 7 -60 11 -94 11c-66 0 -124 -39 -124 -159v-323h201v-192h-201v-1020c0 -299 -135 -360 -303 -360c-49 0 -122 11 -168 34v178c27 -7 60 -11 94 -11c66 0 124 39 124 159z" />
    <glyph glyph-name="dagger" unicode="&#x2020;" horiz-adv-x="452" 
d="M116 -323v1478h-262v201h262v509h220v-509h263v-201h-263v-1478h-220z" />
    <glyph glyph-name="daggerdbl" unicode="&#x2021;" horiz-adv-x="452" 
d="M116 -323v951h-262v201h262v326h-262v201h262v509h220v-509h262v-201h-262v-326h262v-201h-262v-951h-220z" />
    <glyph glyph-name="uni00AD" unicode="&#xad;" horiz-adv-x="1707" 
 />
    <glyph glyph-name="integral" unicode="&#x222b;" horiz-adv-x="616" 
d="M153 -59v1535c0 299 135 360 303 360c49 0 122 -11 168 -34v-178c-27 7 -60 11 -94 11c-66 0 -124 -39 -124 -159v-1535c0 -299 -135 -360 -303 -360c-49 0 -122 11 -168 34v178c27 -7 60 -11 94 -11c66 0 124 39 124 159z" />
    <glyph glyph-name="approxequal" unicode="&#x2248;" horiz-adv-x="1304" 
d="M130 935c-27 347 125 450 298 450c266 0 316 -312 448 -312c92 0 128 99 96 281h192c59 -313 -95 -470 -264 -470c-273 0 -337 309 -466 309c-101 0 -141 -105 -118 -258h-186zM119 280c-27 347 125 450 298 450c266 0 316 -312 448 -312c92 0 128 99 96 281h192
c59 -313 -95 -470 -264 -470c-273 0 -337 309 -466 309c-101 0 -141 -105 -118 -258h-186z" />
    <glyph glyph-name="dotaccent" unicode="&#x2d9;" horiz-adv-x="533" 
d="M265 1574c-93 0 -151 58 -151 165c0 119 57 160 152 160c99 0 153 -49 153 -160c0 -104 -55 -165 -154 -165z" />
    <glyph glyph-name="notequal" unicode="&#x2260;" horiz-adv-x="916" 
d="M175 200l86 288h-175v195h234l63 212h-297v195h356l84 279h159l-84 -279h229v-195h-288l-63 -212h351v-195h-410l-86 -288h-159z" />
    <glyph glyph-name="radical" unicode="&#x221a;" horiz-adv-x="1033" 
d="M444 0l-269 994h-144v196h347l141 -548l33 -292h8l38 292l281 1419h244l-463 -2061h-216z" />
    <glyph glyph-name="Zacute" unicode="&#x179;" horiz-adv-x="865" 
d="M39 0v137l506 1367h-430v204h721v-137l-507 -1367h477v-204h-767zM483 1733l-105 117l321 216l129 -167z" />
    <glyph glyph-name="fraction" unicode="&#x2044;" horiz-adv-x="452" 
d="M88 0h-182l459 1709h182z" />
    <glyph glyph-name="Dcroat" unicode="&#x110;" horiz-adv-x="1037" 
d="M128 0v817h-85v202h85v706h278c193 0 535 -29 535 -596v-523c0 -578 -342 -606 -535 -606h-278zM387 180h31c185 0 254 118 254 378v591c0 244 -61 370 -254 370h-31v-500h158v-202h-158v-637z" />
    <glyph glyph-name="LF" unicode="&#xa;" 
 />
    <glyph glyph-name="HT" unicode="&#x9;" 
 />
    <glyph glyph-name="DLE" 
 />
    <glyph glyph-name="DC1" 
 />
    <glyph glyph-name="DC2" 
 />
    <glyph glyph-name="DC3" 
 />
    <glyph glyph-name="DC4" 
 />
    <glyph glyph-name="RS" 
 />
    <glyph glyph-name="US" 
 />
    <glyph glyph-name="DEL" 
 />
    <glyph glyph-name="n" unicode="n" horiz-adv-x="1020" 
d="M130 0v1377h195l23 -147v-1c79 126 187 164 288 164c160 0 252 -114 252 -338v-1055h-253v1046c0 121 -38 162 -110 162c-51 0 -104 -36 -142 -94v-1114h-253z" />
  </font>
</defs>
</svg>
